<?xml version="1.0" encoding="utf-8" standalone="no"?>
<!DOCTYPE svg PUBLIC "-//W3C//DTD SVG 1.1//EN"
  "http://www.w3.org/Graphics/SVG/1.1/DTD/svg11.dtd">
<svg xmlns:xlink="http://www.w3.org/1999/xlink" width="549.850844pt" height="326.452131pt" viewBox="0 0 549.850844 326.452131" xmlns="http://www.w3.org/2000/svg" version="1.1">
 <metadata>
  <rdf:RDF xmlns:dc="http://purl.org/dc/elements/1.1/" xmlns:cc="http://creativecommons.org/ns#" xmlns:rdf="http://www.w3.org/1999/02/22-rdf-syntax-ns#">
   <cc:Work>
    <dc:type rdf:resource="http://purl.org/dc/dcmitype/StillImage"/>
    <dc:date>2026-06-30T16:52:34.793162</dc:date>
    <dc:format>image/svg+xml</dc:format>
    <dc:creator>
     <cc:Agent>
      <dc:title>Matplotlib v3.10.9, https://matplotlib.org/</dc:title>
     </cc:Agent>
    </dc:creator>
   </cc:Work>
  </rdf:RDF>
 </metadata>
 <defs>
  <style type="text/css">*{stroke-linejoin: round; stroke-linecap: butt}</style>
 </defs>
 <g id="figure_1">
  <g id="patch_1">
   <path d="M -0 326.452131 
L 549.850844 326.452131 
L 549.850844 0 
L -0 0 
z
" style="fill: #ffffff"/>
  </g>
  <g id="axes_1">
   <g id="patch_2">
    <path d="M 148.396938 293.062288 
L 538.996938 293.062288 
L 538.996938 31.108288 
L 148.396938 31.108288 
z
" style="fill: #ffffff"/>
   </g>
   <g id="patch_3">
    <path d="M 148.396938 199.179384 
L 538.996938 199.179384 
L 538.996938 281.155288 
L 148.396938 281.155288 
z
" clip-path="url(#pde678315e0)" style="fill: #d9730a; opacity: 0.07; stroke: #d9730a; stroke-linejoin: miter"/>
   </g>
   <g id="matplotlib.axis_1">
    <g id="xtick_1">
     <g id="line2d_1">
      <defs>
       <path id="mb2b84b746f" d="M 0 0 
L 0 3 
" style="stroke: #000000; stroke-width: 0.8"/>
      </defs>
      <g>
       <use xlink:href="#mb2b84b746f" x="148.396938" y="293.062288" style="stroke: #000000; stroke-width: 0.8"/>
      </g>
     </g>
     <g id="text_1">
      <!-- 0 -->
      <g transform="translate(145.692875 306.020959) scale(0.085 -0.085)">
       <defs>
        <path id="DejaVuSerif-30" d="M 2034 219 
Q 2513 219 2750 744 
Q 2988 1269 2988 2328 
Q 2988 3391 2750 3916 
Q 2513 4441 2034 4441 
Q 1556 4441 1318 3916 
Q 1081 3391 1081 2328 
Q 1081 1269 1318 744 
Q 1556 219 2034 219 
z
M 2034 -91 
Q 1275 -91 848 546 
Q 422 1184 422 2328 
Q 422 3475 848 4112 
Q 1275 4750 2034 4750 
Q 2797 4750 3222 4112 
Q 3647 3475 3647 2328 
Q 3647 1184 3222 546 
Q 2797 -91 2034 -91 
z
" transform="scale(0.015625)"/>
       </defs>
       <use xlink:href="#DejaVuSerif-30"/>
      </g>
     </g>
    </g>
    <g id="xtick_2">
     <g id="line2d_2">
      <g>
       <use xlink:href="#mb2b84b746f" x="194.896938" y="293.062288" style="stroke: #000000; stroke-width: 0.8"/>
      </g>
     </g>
     <g id="text_2">
      <!-- 1 -->
      <g transform="translate(192.192875 306.020959) scale(0.085 -0.085)">
       <defs>
        <path id="DejaVuSerif-31" d="M 909 0 
L 909 331 
L 1722 331 
L 1722 4213 
L 781 3603 
L 781 4013 
L 1919 4750 
L 2350 4750 
L 2350 331 
L 3163 331 
L 3163 0 
L 909 0 
z
" transform="scale(0.015625)"/>
       </defs>
       <use xlink:href="#DejaVuSerif-31"/>
      </g>
     </g>
    </g>
    <g id="xtick_3">
     <g id="line2d_3">
      <g>
       <use xlink:href="#mb2b84b746f" x="241.396938" y="293.062288" style="stroke: #000000; stroke-width: 0.8"/>
      </g>
     </g>
     <g id="text_3">
      <!-- 2 -->
      <g transform="translate(238.692875 306.020959) scale(0.085 -0.085)">
       <defs>
        <path id="DejaVuSerif-32" d="M 819 3553 
L 469 3553 
L 469 4384 
Q 803 4563 1142 4656 
Q 1481 4750 1806 4750 
Q 2534 4750 2956 4397 
Q 3378 4044 3378 3438 
Q 3378 2753 2422 1800 
Q 2347 1728 2309 1691 
L 1131 513 
L 3078 513 
L 3078 1088 
L 3444 1088 
L 3444 0 
L 434 0 
L 434 341 
L 1850 1753 
Q 2319 2222 2519 2614 
Q 2719 3006 2719 3438 
Q 2719 3909 2473 4175 
Q 2228 4441 1797 4441 
Q 1350 4441 1106 4219 
Q 863 3997 819 3553 
z
" transform="scale(0.015625)"/>
       </defs>
       <use xlink:href="#DejaVuSerif-32"/>
      </g>
     </g>
    </g>
    <g id="xtick_4">
     <g id="line2d_4">
      <g>
       <use xlink:href="#mb2b84b746f" x="287.896938" y="293.062288" style="stroke: #000000; stroke-width: 0.8"/>
      </g>
     </g>
     <g id="text_4">
      <!-- 3 -->
      <g transform="translate(285.192875 306.020959) scale(0.085 -0.085)">
       <defs>
        <path id="DejaVuSerif-33" d="M 622 4469 
Q 988 4606 1323 4678 
Q 1659 4750 1953 4750 
Q 2638 4750 3022 4454 
Q 3406 4159 3406 3634 
Q 3406 3213 3140 2930 
Q 2875 2647 2388 2547 
Q 2963 2466 3280 2130 
Q 3597 1794 3597 1259 
Q 3597 606 3158 257 
Q 2719 -91 1894 -91 
Q 1528 -91 1179 -12 
Q 831 66 488 225 
L 488 1131 
L 838 1131 
Q 869 681 1141 450 
Q 1413 219 1906 219 
Q 2384 219 2661 495 
Q 2938 772 2938 1253 
Q 2938 1803 2653 2086 
Q 2369 2369 1819 2369 
L 1522 2369 
L 1522 2688 
L 1678 2688 
Q 2225 2688 2498 2914 
Q 2772 3141 2772 3597 
Q 2772 4006 2547 4223 
Q 2322 4441 1900 4441 
Q 1478 4441 1245 4241 
Q 1013 4041 972 3647 
L 622 3647 
L 622 4469 
z
" transform="scale(0.015625)"/>
       </defs>
       <use xlink:href="#DejaVuSerif-33"/>
      </g>
     </g>
    </g>
    <g id="xtick_5">
     <g id="line2d_5">
      <g>
       <use xlink:href="#mb2b84b746f" x="334.396938" y="293.062288" style="stroke: #000000; stroke-width: 0.8"/>
      </g>
     </g>
     <g id="text_5">
      <!-- 4 -->
      <g transform="translate(331.692875 306.020959) scale(0.085 -0.085)">
       <defs>
        <path id="DejaVuSerif-34" d="M 2234 1581 
L 2234 4063 
L 641 1581 
L 2234 1581 
z
M 3609 0 
L 1484 0 
L 1484 331 
L 2234 331 
L 2234 1247 
L 197 1247 
L 197 1588 
L 2241 4750 
L 2859 4750 
L 2859 1581 
L 3750 1581 
L 3750 1247 
L 2859 1247 
L 2859 331 
L 3609 331 
L 3609 0 
z
" transform="scale(0.015625)"/>
       </defs>
       <use xlink:href="#DejaVuSerif-34"/>
      </g>
     </g>
    </g>
    <g id="xtick_6">
     <g id="line2d_6">
      <g>
       <use xlink:href="#mb2b84b746f" x="380.896938" y="293.062288" style="stroke: #000000; stroke-width: 0.8"/>
      </g>
     </g>
     <g id="text_6">
      <!-- 5 -->
      <g transform="translate(378.192875 306.020959) scale(0.085 -0.085)">
       <defs>
        <path id="DejaVuSerif-35" d="M 3219 4666 
L 3219 4153 
L 1081 4153 
L 1081 2816 
Q 1244 2928 1461 2984 
Q 1678 3041 1947 3041 
Q 2703 3041 3140 2622 
Q 3578 2203 3578 1478 
Q 3578 738 3136 323 
Q 2694 -91 1894 -91 
Q 1572 -91 1234 -12 
Q 897 66 544 225 
L 544 1131 
L 897 1131 
Q 925 688 1179 453 
Q 1434 219 1894 219 
Q 2388 219 2653 544 
Q 2919 869 2919 1478 
Q 2919 2084 2655 2407 
Q 2391 2731 1894 2731 
Q 1613 2731 1398 2631 
Q 1184 2531 1019 2322 
L 750 2322 
L 750 4666 
L 3219 4666 
z
" transform="scale(0.015625)"/>
       </defs>
       <use xlink:href="#DejaVuSerif-35"/>
      </g>
     </g>
    </g>
    <g id="xtick_7">
     <g id="line2d_7">
      <g>
       <use xlink:href="#mb2b84b746f" x="427.396938" y="293.062288" style="stroke: #000000; stroke-width: 0.8"/>
      </g>
     </g>
     <g id="text_7">
      <!-- 6 -->
      <g transform="translate(424.692875 306.020959) scale(0.085 -0.085)">
       <defs>
        <path id="DejaVuSerif-36" d="M 2094 219 
Q 2534 219 2771 542 
Q 3009 866 3009 1472 
Q 3009 2078 2771 2401 
Q 2534 2725 2094 2725 
Q 1647 2725 1412 2412 
Q 1178 2100 1178 1509 
Q 1178 888 1415 553 
Q 1653 219 2094 219 
z
M 1075 2569 
Q 1288 2803 1556 2918 
Q 1825 3034 2163 3034 
Q 2859 3034 3264 2615 
Q 3669 2197 3669 1472 
Q 3669 763 3233 336 
Q 2797 -91 2069 -91 
Q 1278 -91 853 498 
Q 428 1088 428 2181 
Q 428 3406 931 4078 
Q 1434 4750 2350 4750 
Q 2597 4750 2869 4703 
Q 3141 4656 3425 4563 
L 3425 3794 
L 3072 3794 
Q 3034 4109 2831 4275 
Q 2628 4441 2284 4441 
Q 1678 4441 1381 3981 
Q 1084 3522 1075 2569 
z
" transform="scale(0.015625)"/>
       </defs>
       <use xlink:href="#DejaVuSerif-36"/>
      </g>
     </g>
    </g>
    <g id="xtick_8">
     <g id="line2d_8">
      <g>
       <use xlink:href="#mb2b84b746f" x="473.896938" y="293.062288" style="stroke: #000000; stroke-width: 0.8"/>
      </g>
     </g>
     <g id="text_8">
      <!-- 7 -->
      <g transform="translate(471.192875 306.020959) scale(0.085 -0.085)">
       <defs>
        <path id="DejaVuSerif-37" d="M 3609 4347 
L 1784 0 
L 1319 0 
L 3059 4153 
L 903 4153 
L 903 3578 
L 538 3578 
L 538 4666 
L 3609 4666 
L 3609 4347 
z
" transform="scale(0.015625)"/>
       </defs>
       <use xlink:href="#DejaVuSerif-37"/>
      </g>
     </g>
    </g>
    <g id="text_9">
     <!-- number of sources reporting the coordinate  (n = 7 open-access full texts) -->
     <g transform="translate(200.512937 317.563506) scale(0.076 -0.076)">
      <defs>
       <path id="DejaVuSerif-6e" d="M 263 0 
L 263 331 
L 781 331 
L 781 2988 
L 231 2988 
L 231 3322 
L 1356 3322 
L 1356 2731 
Q 1516 3069 1770 3241 
Q 2025 3413 2363 3413 
Q 2913 3413 3172 3097 
Q 3431 2781 3431 2113 
L 3431 331 
L 3944 331 
L 3944 0 
L 2356 0 
L 2356 331 
L 2853 331 
L 2853 1931 
Q 2853 2541 2703 2767 
Q 2553 2994 2175 2994 
Q 1775 2994 1565 2701 
Q 1356 2409 1356 1850 
L 1356 331 
L 1856 331 
L 1856 0 
L 263 0 
z
" transform="scale(0.015625)"/>
       <path id="DejaVuSerif-75" d="M 2266 3322 
L 3341 3322 
L 3341 331 
L 3884 331 
L 3884 0 
L 2766 0 
L 2766 588 
Q 2606 256 2353 82 
Q 2100 -91 1766 -91 
Q 1213 -91 952 223 
Q 691 538 691 1209 
L 691 2988 
L 172 2988 
L 172 3322 
L 1269 3322 
L 1269 1388 
Q 1269 781 1417 556 
Q 1566 331 1947 331 
Q 2347 331 2556 625 
Q 2766 919 2766 1478 
L 2766 2988 
L 2266 2988 
L 2266 3322 
z
" transform="scale(0.015625)"/>
       <path id="DejaVuSerif-6d" d="M 3316 2675 
Q 3481 3041 3739 3227 
Q 3997 3413 4341 3413 
Q 4863 3413 5119 3089 
Q 5375 2766 5375 2113 
L 5375 331 
L 5894 331 
L 5894 0 
L 4300 0 
L 4300 331 
L 4800 331 
L 4800 2047 
Q 4800 2556 4650 2772 
Q 4500 2988 4153 2988 
Q 3769 2988 3567 2697 
Q 3366 2406 3366 1850 
L 3366 331 
L 3866 331 
L 3866 0 
L 2291 0 
L 2291 331 
L 2791 331 
L 2791 2069 
Q 2791 2566 2641 2777 
Q 2491 2988 2144 2988 
Q 1759 2988 1557 2697 
Q 1356 2406 1356 1850 
L 1356 331 
L 1856 331 
L 1856 0 
L 263 0 
L 263 331 
L 781 331 
L 781 2994 
L 231 2994 
L 231 3322 
L 1356 3322 
L 1356 2731 
Q 1516 3063 1762 3238 
Q 2009 3413 2322 3413 
Q 2709 3413 2968 3220 
Q 3228 3028 3316 2675 
z
" transform="scale(0.015625)"/>
       <path id="DejaVuSerif-62" d="M 738 331 
L 738 4531 
L 184 4531 
L 184 4863 
L 1313 4863 
L 1313 2803 
Q 1481 3116 1742 3264 
Q 2003 3413 2388 3413 
Q 3000 3413 3387 2928 
Q 3775 2444 3775 1663 
Q 3775 881 3387 395 
Q 3000 -91 2388 -91 
Q 2003 -91 1742 57 
Q 1481 206 1313 519 
L 1313 0 
L 184 0 
L 184 331 
L 738 331 
z
M 1313 1497 
Q 1313 897 1542 583 
Q 1772 269 2209 269 
Q 2650 269 2876 622 
Q 3103 975 3103 1663 
Q 3103 2353 2876 2703 
Q 2650 3053 2209 3053 
Q 1772 3053 1542 2737 
Q 1313 2422 1313 1825 
L 1313 1497 
z
" transform="scale(0.015625)"/>
       <path id="DejaVuSerif-65" d="M 3469 1600 
L 991 1600 
L 991 1575 
Q 991 903 1244 561 
Q 1497 219 1991 219 
Q 2369 219 2611 417 
Q 2853 616 2950 1006 
L 3413 1006 
Q 3275 459 2904 184 
Q 2534 -91 1931 -91 
Q 1203 -91 761 389 
Q 319 869 319 1663 
Q 319 2450 753 2931 
Q 1188 3413 1894 3413 
Q 2647 3413 3050 2948 
Q 3453 2484 3469 1600 
z
M 2791 1931 
Q 2772 2513 2545 2808 
Q 2319 3103 1894 3103 
Q 1497 3103 1269 2806 
Q 1041 2509 991 1931 
L 2791 1931 
z
" transform="scale(0.015625)"/>
       <path id="DejaVuSerif-72" d="M 3059 3328 
L 3059 2497 
L 2728 2497 
Q 2713 2744 2591 2866 
Q 2469 2988 2234 2988 
Q 1809 2988 1582 2694 
Q 1356 2400 1356 1850 
L 1356 331 
L 2022 331 
L 2022 0 
L 263 0 
L 263 331 
L 781 331 
L 781 2994 
L 231 2994 
L 231 3322 
L 1356 3322 
L 1356 2731 
Q 1525 3078 1790 3245 
Q 2056 3413 2438 3413 
Q 2578 3413 2733 3391 
Q 2888 3369 3059 3328 
z
" transform="scale(0.015625)"/>
       <path id="DejaVuSerif-20" transform="scale(0.015625)"/>
       <path id="DejaVuSerif-6f" d="M 1925 219 
Q 2388 219 2623 584 
Q 2859 950 2859 1663 
Q 2859 2375 2623 2739 
Q 2388 3103 1925 3103 
Q 1463 3103 1227 2739 
Q 991 2375 991 1663 
Q 991 950 1228 584 
Q 1466 219 1925 219 
z
M 1925 -91 
Q 1200 -91 759 389 
Q 319 869 319 1663 
Q 319 2456 758 2934 
Q 1197 3413 1925 3413 
Q 2653 3413 3092 2934 
Q 3531 2456 3531 1663 
Q 3531 869 3092 389 
Q 2653 -91 1925 -91 
z
" transform="scale(0.015625)"/>
       <path id="DejaVuSerif-66" d="M 2753 4078 
L 2450 4078 
Q 2447 4313 2317 4434 
Q 2188 4556 1941 4556 
Q 1619 4556 1487 4379 
Q 1356 4203 1356 3750 
L 1356 3322 
L 2284 3322 
L 2284 2988 
L 1356 2988 
L 1356 331 
L 2094 331 
L 2094 0 
L 231 0 
L 231 331 
L 781 331 
L 781 2988 
L 231 2988 
L 231 3322 
L 781 3322 
L 781 3738 
Q 781 4294 1070 4578 
Q 1359 4863 1919 4863 
Q 2128 4863 2337 4825 
Q 2547 4788 2753 4709 
L 2753 4078 
z
" transform="scale(0.015625)"/>
       <path id="DejaVuSerif-73" d="M 359 184 
L 359 959 
L 691 959 
Q 703 588 923 403 
Q 1144 219 1575 219 
Q 1963 219 2166 364 
Q 2369 509 2369 788 
Q 2369 1006 2220 1140 
Q 2072 1275 1594 1428 
L 1178 1569 
Q 750 1706 558 1912 
Q 366 2119 366 2438 
Q 366 2894 700 3153 
Q 1034 3413 1625 3413 
Q 1888 3413 2178 3344 
Q 2469 3275 2778 3144 
L 2778 2419 
L 2447 2419 
Q 2434 2741 2221 2922 
Q 2009 3103 1644 3103 
Q 1281 3103 1095 2975 
Q 909 2847 909 2591 
Q 909 2381 1050 2254 
Q 1191 2128 1613 1997 
L 2069 1856 
Q 2541 1709 2748 1489 
Q 2956 1269 2956 922 
Q 2956 450 2595 179 
Q 2234 -91 1600 -91 
Q 1278 -91 972 -22 
Q 666 47 359 184 
z
" transform="scale(0.015625)"/>
       <path id="DejaVuSerif-63" d="M 3291 997 
Q 3169 466 2822 187 
Q 2475 -91 1925 -91 
Q 1200 -91 759 389 
Q 319 869 319 1663 
Q 319 2459 759 2936 
Q 1200 3413 1925 3413 
Q 2241 3413 2553 3339 
Q 2866 3266 3181 3116 
L 3181 2266 
L 2847 2266 
Q 2781 2703 2561 2903 
Q 2341 3103 1931 3103 
Q 1466 3103 1228 2742 
Q 991 2381 991 1663 
Q 991 944 1227 581 
Q 1463 219 1931 219 
Q 2303 219 2525 412 
Q 2747 606 2828 997 
L 3291 997 
z
" transform="scale(0.015625)"/>
       <path id="DejaVuSerif-70" d="M 1313 1825 
L 1313 1497 
Q 1313 897 1542 583 
Q 1772 269 2209 269 
Q 2650 269 2876 622 
Q 3103 975 3103 1663 
Q 3103 2353 2876 2703 
Q 2650 3053 2209 3053 
Q 1772 3053 1542 2737 
Q 1313 2422 1313 1825 
z
M 738 2988 
L 184 2988 
L 184 3322 
L 1313 3322 
L 1313 2803 
Q 1481 3116 1742 3264 
Q 2003 3413 2388 3413 
Q 3000 3413 3387 2928 
Q 3775 2444 3775 1663 
Q 3775 881 3387 395 
Q 3000 -91 2388 -91 
Q 2003 -91 1742 57 
Q 1481 206 1313 519 
L 1313 -997 
L 1856 -997 
L 1856 -1331 
L 184 -1331 
L 184 -997 
L 738 -997 
L 738 2988 
z
" transform="scale(0.015625)"/>
       <path id="DejaVuSerif-74" d="M 691 2988 
L 184 2988 
L 184 3322 
L 691 3322 
L 691 4353 
L 1269 4353 
L 1269 3322 
L 2350 3322 
L 2350 2988 
L 1269 2988 
L 1269 878 
Q 1269 456 1350 337 
Q 1431 219 1650 219 
Q 1875 219 1978 351 
Q 2081 484 2088 781 
L 2522 781 
Q 2497 328 2275 118 
Q 2053 -91 1600 -91 
Q 1103 -91 897 129 
Q 691 350 691 878 
L 691 2988 
z
" transform="scale(0.015625)"/>
       <path id="DejaVuSerif-69" d="M 622 4353 
Q 622 4497 726 4603 
Q 831 4709 978 4709 
Q 1122 4709 1226 4603 
Q 1331 4497 1331 4353 
Q 1331 4206 1228 4103 
Q 1125 4000 978 4000 
Q 831 4000 726 4103 
Q 622 4206 622 4353 
z
M 1356 331 
L 1900 331 
L 1900 0 
L 231 0 
L 231 331 
L 781 331 
L 781 2988 
L 231 2988 
L 231 3322 
L 1356 3322 
L 1356 331 
z
" transform="scale(0.015625)"/>
       <path id="DejaVuSerif-67" d="M 3359 2988 
L 3359 72 
Q 3359 -644 2965 -1033 
Q 2572 -1422 1844 -1422 
Q 1516 -1422 1216 -1362 
Q 916 -1303 641 -1184 
L 641 -488 
L 941 -488 
Q 997 -813 1206 -963 
Q 1416 -1113 1806 -1113 
Q 2313 -1113 2548 -827 
Q 2784 -541 2784 72 
L 2784 519 
Q 2616 206 2355 57 
Q 2094 -91 1709 -91 
Q 1097 -91 708 395 
Q 319 881 319 1663 
Q 319 2444 706 2928 
Q 1094 3413 1709 3413 
Q 2094 3413 2355 3264 
Q 2616 3116 2784 2803 
L 2784 3322 
L 3909 3322 
L 3909 2988 
L 3359 2988 
z
M 2784 1825 
Q 2784 2422 2554 2737 
Q 2325 3053 1888 3053 
Q 1444 3053 1217 2703 
Q 991 2353 991 1663 
Q 991 975 1217 622 
Q 1444 269 1888 269 
Q 2325 269 2554 583 
Q 2784 897 2784 1497 
L 2784 1825 
z
" transform="scale(0.015625)"/>
       <path id="DejaVuSerif-68" d="M 263 0 
L 263 331 
L 781 331 
L 781 4531 
L 231 4531 
L 231 4863 
L 1356 4863 
L 1356 2731 
Q 1516 3069 1770 3241 
Q 2025 3413 2363 3413 
Q 2913 3413 3172 3097 
Q 3431 2781 3431 2113 
L 3431 331 
L 3944 331 
L 3944 0 
L 2356 0 
L 2356 331 
L 2853 331 
L 2853 1931 
Q 2853 2541 2704 2764 
Q 2556 2988 2175 2988 
Q 1775 2988 1565 2697 
Q 1356 2406 1356 1850 
L 1356 331 
L 1856 331 
L 1856 0 
L 263 0 
z
" transform="scale(0.015625)"/>
       <path id="DejaVuSerif-64" d="M 3359 331 
L 3909 331 
L 3909 0 
L 2784 0 
L 2784 519 
Q 2616 206 2355 57 
Q 2094 -91 1709 -91 
Q 1097 -91 708 395 
Q 319 881 319 1663 
Q 319 2444 706 2928 
Q 1094 3413 1709 3413 
Q 2094 3413 2355 3264 
Q 2616 3116 2784 2803 
L 2784 4531 
L 2241 4531 
L 2241 4863 
L 3359 4863 
L 3359 331 
z
M 2784 1497 
L 2784 1825 
Q 2784 2422 2554 2737 
Q 2325 3053 1888 3053 
Q 1444 3053 1217 2703 
Q 991 2353 991 1663 
Q 991 975 1217 622 
Q 1444 269 1888 269 
Q 2325 269 2554 583 
Q 2784 897 2784 1497 
z
" transform="scale(0.015625)"/>
       <path id="DejaVuSerif-61" d="M 2547 1044 
L 2547 1747 
L 1806 1747 
Q 1378 1747 1168 1562 
Q 959 1378 959 997 
Q 959 650 1171 447 
Q 1384 244 1747 244 
Q 2106 244 2326 466 
Q 2547 688 2547 1044 
z
M 3122 2075 
L 3122 331 
L 3634 331 
L 3634 0 
L 2547 0 
L 2547 359 
Q 2356 128 2106 18 
Q 1856 -91 1522 -91 
Q 969 -91 644 203 
Q 319 497 319 997 
Q 319 1513 691 1797 
Q 1063 2081 1741 2081 
L 2547 2081 
L 2547 2309 
Q 2547 2688 2317 2895 
Q 2088 3103 1672 3103 
Q 1328 3103 1125 2947 
Q 922 2791 872 2484 
L 575 2484 
L 575 3156 
Q 875 3284 1158 3348 
Q 1441 3413 1709 3413 
Q 2400 3413 2761 3070 
Q 3122 2728 3122 2075 
z
" transform="scale(0.015625)"/>
       <path id="DejaVuSerif-28" d="M 2041 -997 
Q 1281 -656 893 83 
Q 506 822 506 1931 
Q 506 3044 893 3783 
Q 1281 4522 2041 4863 
L 2041 4556 
Q 1559 4225 1350 3623 
Q 1141 3022 1141 1931 
Q 1141 844 1350 242 
Q 1559 -359 2041 -691 
L 2041 -997 
z
" transform="scale(0.015625)"/>
       <path id="DejaVuSerif-3d" d="M 678 2894 
L 4684 2894 
L 4684 2394 
L 678 2394 
L 678 2894 
z
M 678 1619 
L 4684 1619 
L 4684 1119 
L 678 1119 
L 678 1619 
z
" transform="scale(0.015625)"/>
       <path id="DejaVuSerif-2d" d="M 281 1959 
L 1881 1959 
L 1881 1472 
L 281 1472 
L 281 1959 
z
" transform="scale(0.015625)"/>
       <path id="DejaVuSerif-6c" d="M 1313 331 
L 1856 331 
L 1856 0 
L 184 0 
L 184 331 
L 738 331 
L 738 4531 
L 184 4531 
L 184 4863 
L 1313 4863 
L 1313 331 
z
" transform="scale(0.015625)"/>
       <path id="DejaVuSerif-78" d="M 1863 2028 
L 2559 2988 
L 2113 2988 
L 2113 3322 
L 3391 3322 
L 3391 2988 
L 2950 2988 
L 2059 1759 
L 3097 331 
L 3531 331 
L 3531 0 
L 1997 0 
L 1997 331 
L 2419 331 
L 1697 1325 
L 972 331 
L 1403 331 
L 1403 0 
L 141 0 
L 141 331 
L 581 331 
L 1497 1594 
L 488 2988 
L 78 2988 
L 78 3322 
L 1563 3322 
L 1563 2988 
L 1166 2988 
L 1863 2028 
z
" transform="scale(0.015625)"/>
       <path id="DejaVuSerif-29" d="M 453 -997 
L 453 -691 
Q 934 -359 1145 242 
Q 1356 844 1356 1931 
Q 1356 3022 1145 3623 
Q 934 4225 453 4556 
L 453 4863 
Q 1216 4522 1603 3783 
Q 1991 3044 1991 1931 
Q 1991 822 1603 83 
Q 1216 -656 453 -997 
z
" transform="scale(0.015625)"/>
      </defs>
      <use xlink:href="#DejaVuSerif-6e"/>
      <use xlink:href="#DejaVuSerif-75" transform="translate(64.404297 0)"/>
      <use xlink:href="#DejaVuSerif-6d" transform="translate(128.808594 0)"/>
      <use xlink:href="#DejaVuSerif-62" transform="translate(223.632812 0)"/>
      <use xlink:href="#DejaVuSerif-65" transform="translate(287.646484 0)"/>
      <use xlink:href="#DejaVuSerif-72" transform="translate(346.826172 0)"/>
      <use xlink:href="#DejaVuSerif-20" transform="translate(394.628906 0)"/>
      <use xlink:href="#DejaVuSerif-6f" transform="translate(426.416016 0)"/>
      <use xlink:href="#DejaVuSerif-66" transform="translate(486.621094 0)"/>
      <use xlink:href="#DejaVuSerif-20" transform="translate(523.632812 0)"/>
      <use xlink:href="#DejaVuSerif-73" transform="translate(555.419922 0)"/>
      <use xlink:href="#DejaVuSerif-6f" transform="translate(606.738281 0)"/>
      <use xlink:href="#DejaVuSerif-75" transform="translate(666.943359 0)"/>
      <use xlink:href="#DejaVuSerif-72" transform="translate(731.347656 0)"/>
      <use xlink:href="#DejaVuSerif-63" transform="translate(779.150391 0)"/>
      <use xlink:href="#DejaVuSerif-65" transform="translate(835.15625 0)"/>
      <use xlink:href="#DejaVuSerif-73" transform="translate(894.335938 0)"/>
      <use xlink:href="#DejaVuSerif-20" transform="translate(945.654297 0)"/>
      <use xlink:href="#DejaVuSerif-72" transform="translate(977.441406 0)"/>
      <use xlink:href="#DejaVuSerif-65" transform="translate(1025.244141 0)"/>
      <use xlink:href="#DejaVuSerif-70" transform="translate(1084.423828 0)"/>
      <use xlink:href="#DejaVuSerif-6f" transform="translate(1148.4375 0)"/>
      <use xlink:href="#DejaVuSerif-72" transform="translate(1208.642578 0)"/>
      <use xlink:href="#DejaVuSerif-74" transform="translate(1256.445312 0)"/>
      <use xlink:href="#DejaVuSerif-69" transform="translate(1296.630859 0)"/>
      <use xlink:href="#DejaVuSerif-6e" transform="translate(1328.613281 0)"/>
      <use xlink:href="#DejaVuSerif-67" transform="translate(1393.017578 0)"/>
      <use xlink:href="#DejaVuSerif-20" transform="translate(1457.03125 0)"/>
      <use xlink:href="#DejaVuSerif-74" transform="translate(1488.818359 0)"/>
      <use xlink:href="#DejaVuSerif-68" transform="translate(1529.003906 0)"/>
      <use xlink:href="#DejaVuSerif-65" transform="translate(1593.408203 0)"/>
      <use xlink:href="#DejaVuSerif-20" transform="translate(1652.587891 0)"/>
      <use xlink:href="#DejaVuSerif-63" transform="translate(1684.375 0)"/>
      <use xlink:href="#DejaVuSerif-6f" transform="translate(1740.380859 0)"/>
      <use xlink:href="#DejaVuSerif-6f" transform="translate(1800.585938 0)"/>
      <use xlink:href="#DejaVuSerif-72" transform="translate(1860.791016 0)"/>
      <use xlink:href="#DejaVuSerif-64" transform="translate(1908.59375 0)"/>
      <use xlink:href="#DejaVuSerif-69" transform="translate(1972.607422 0)"/>
      <use xlink:href="#DejaVuSerif-6e" transform="translate(2004.589844 0)"/>
      <use xlink:href="#DejaVuSerif-61" transform="translate(2068.994141 0)"/>
      <use xlink:href="#DejaVuSerif-74" transform="translate(2128.613281 0)"/>
      <use xlink:href="#DejaVuSerif-65" transform="translate(2168.798828 0)"/>
      <use xlink:href="#DejaVuSerif-20" transform="translate(2227.978516 0)"/>
      <use xlink:href="#DejaVuSerif-20" transform="translate(2259.765625 0)"/>
      <use xlink:href="#DejaVuSerif-28" transform="translate(2291.552734 0)"/>
      <use xlink:href="#DejaVuSerif-6e" transform="translate(2330.566406 0)"/>
      <use xlink:href="#DejaVuSerif-20" transform="translate(2394.970703 0)"/>
      <use xlink:href="#DejaVuSerif-3d" transform="translate(2426.757812 0)"/>
      <use xlink:href="#DejaVuSerif-20" transform="translate(2510.546875 0)"/>
      <use xlink:href="#DejaVuSerif-37" transform="translate(2542.333984 0)"/>
      <use xlink:href="#DejaVuSerif-20" transform="translate(2605.957031 0)"/>
      <use xlink:href="#DejaVuSerif-6f" transform="translate(2637.744141 0)"/>
      <use xlink:href="#DejaVuSerif-70" transform="translate(2697.949219 0)"/>
      <use xlink:href="#DejaVuSerif-65" transform="translate(2761.962891 0)"/>
      <use xlink:href="#DejaVuSerif-6e" transform="translate(2821.142578 0)"/>
      <use xlink:href="#DejaVuSerif-2d" transform="translate(2885.546875 0)"/>
      <use xlink:href="#DejaVuSerif-61" transform="translate(2919.335938 0)"/>
      <use xlink:href="#DejaVuSerif-63" transform="translate(2978.955078 0)"/>
      <use xlink:href="#DejaVuSerif-63" transform="translate(3034.960938 0)"/>
      <use xlink:href="#DejaVuSerif-65" transform="translate(3090.966797 0)"/>
      <use xlink:href="#DejaVuSerif-73" transform="translate(3150.146484 0)"/>
      <use xlink:href="#DejaVuSerif-73" transform="translate(3201.464844 0)"/>
      <use xlink:href="#DejaVuSerif-20" transform="translate(3252.783203 0)"/>
      <use xlink:href="#DejaVuSerif-66" transform="translate(3284.570312 0)"/>
      <use xlink:href="#DejaVuSerif-75" transform="translate(3321.582031 0)"/>
      <use xlink:href="#DejaVuSerif-6c" transform="translate(3385.986328 0)"/>
      <use xlink:href="#DejaVuSerif-6c" transform="translate(3417.96875 0)"/>
      <use xlink:href="#DejaVuSerif-20" transform="translate(3449.951172 0)"/>
      <use xlink:href="#DejaVuSerif-74" transform="translate(3481.738281 0)"/>
      <use xlink:href="#DejaVuSerif-65" transform="translate(3521.923828 0)"/>
      <use xlink:href="#DejaVuSerif-78" transform="translate(3581.103516 0)"/>
      <use xlink:href="#DejaVuSerif-74" transform="translate(3637.5 0)"/>
      <use xlink:href="#DejaVuSerif-73" transform="translate(3677.685547 0)"/>
      <use xlink:href="#DejaVuSerif-29" transform="translate(3729.003906 0)"/>
     </g>
    </g>
   </g>
   <g id="matplotlib.axis_2">
    <g id="ytick_1">
     <g id="line2d_9">
      <defs>
       <path id="m57e902af78" d="M 0 0 
L -3 0 
" style="stroke: #000000; stroke-width: 0.8"/>
      </defs>
      <g>
       <use xlink:href="#m57e902af78" x="148.396938" y="55.721553" style="stroke: #000000; stroke-width: 0.8"/>
      </g>
     </g>
     <g id="text_10">
      <!-- input power -->
      <g transform="translate(95.265 58.608959) scale(0.076 -0.076)">
       <defs>
        <path id="DejaVuSerif-77" d="M 3072 3322 
L 3922 728 
L 4672 2988 
L 4191 2988 
L 4191 3322 
L 5394 3322 
L 5394 2988 
L 5025 2988 
L 4038 0 
L 3559 0 
L 2741 2484 
L 1919 0 
L 1459 0 
L 475 2988 
L 103 2988 
L 103 3322 
L 1606 3322 
L 1606 2988 
L 1069 2988 
L 1813 728 
L 2669 3322 
L 3072 3322 
z
" transform="scale(0.015625)"/>
       </defs>
       <use xlink:href="#DejaVuSerif-69"/>
       <use xlink:href="#DejaVuSerif-6e" transform="translate(31.982422 0)"/>
       <use xlink:href="#DejaVuSerif-70" transform="translate(96.386719 0)"/>
       <use xlink:href="#DejaVuSerif-75" transform="translate(160.400391 0)"/>
       <use xlink:href="#DejaVuSerif-74" transform="translate(224.804688 0)"/>
       <use xlink:href="#DejaVuSerif-20" transform="translate(264.990234 0)"/>
       <use xlink:href="#DejaVuSerif-70" transform="translate(296.777344 0)"/>
       <use xlink:href="#DejaVuSerif-6f" transform="translate(360.791016 0)"/>
       <use xlink:href="#DejaVuSerif-77" transform="translate(420.996094 0)"/>
       <use xlink:href="#DejaVuSerif-65" transform="translate(506.591797 0)"/>
       <use xlink:href="#DejaVuSerif-72" transform="translate(565.771484 0)"/>
      </g>
     </g>
    </g>
    <g id="ytick_2">
     <g id="line2d_10">
      <g>
       <use xlink:href="#m57e902af78" x="148.396938" y="96.709504" style="stroke: #000000; stroke-width: 0.8"/>
      </g>
     </g>
     <g id="text_11">
      <!-- process time / dwell -->
      <g transform="translate(64.543188 99.596911) scale(0.076 -0.076)">
       <defs>
        <path id="DejaVuSerif-2f" d="M 1656 4666 
L 2156 4666 
L 500 -594 
L 0 -594 
L 1656 4666 
z
" transform="scale(0.015625)"/>
       </defs>
       <use xlink:href="#DejaVuSerif-70"/>
       <use xlink:href="#DejaVuSerif-72" transform="translate(64.013672 0)"/>
       <use xlink:href="#DejaVuSerif-6f" transform="translate(111.816406 0)"/>
       <use xlink:href="#DejaVuSerif-63" transform="translate(172.021484 0)"/>
       <use xlink:href="#DejaVuSerif-65" transform="translate(228.027344 0)"/>
       <use xlink:href="#DejaVuSerif-73" transform="translate(287.207031 0)"/>
       <use xlink:href="#DejaVuSerif-73" transform="translate(338.525391 0)"/>
       <use xlink:href="#DejaVuSerif-20" transform="translate(389.84375 0)"/>
       <use xlink:href="#DejaVuSerif-74" transform="translate(421.630859 0)"/>
       <use xlink:href="#DejaVuSerif-69" transform="translate(461.816406 0)"/>
       <use xlink:href="#DejaVuSerif-6d" transform="translate(493.798828 0)"/>
       <use xlink:href="#DejaVuSerif-65" transform="translate(588.623047 0)"/>
       <use xlink:href="#DejaVuSerif-20" transform="translate(647.802734 0)"/>
       <use xlink:href="#DejaVuSerif-2f" transform="translate(679.589844 0)"/>
       <use xlink:href="#DejaVuSerif-20" transform="translate(713.28125 0)"/>
       <use xlink:href="#DejaVuSerif-64" transform="translate(745.068359 0)"/>
       <use xlink:href="#DejaVuSerif-77" transform="translate(809.082031 0)"/>
       <use xlink:href="#DejaVuSerif-65" transform="translate(894.677734 0)"/>
       <use xlink:href="#DejaVuSerif-6c" transform="translate(953.857422 0)"/>
       <use xlink:href="#DejaVuSerif-6c" transform="translate(985.839844 0)"/>
      </g>
     </g>
    </g>
    <g id="ytick_3">
     <g id="line2d_11">
      <g>
       <use xlink:href="#m57e902af78" x="148.396938" y="137.697456" style="stroke: #000000; stroke-width: 0.8"/>
      </g>
     </g>
     <g id="text_12">
      <!-- processed sample mass -->
      <g transform="translate(51.105438 140.584862) scale(0.076 -0.076)">
       <use xlink:href="#DejaVuSerif-70"/>
       <use xlink:href="#DejaVuSerif-72" transform="translate(64.013672 0)"/>
       <use xlink:href="#DejaVuSerif-6f" transform="translate(111.816406 0)"/>
       <use xlink:href="#DejaVuSerif-63" transform="translate(172.021484 0)"/>
       <use xlink:href="#DejaVuSerif-65" transform="translate(228.027344 0)"/>
       <use xlink:href="#DejaVuSerif-73" transform="translate(287.207031 0)"/>
       <use xlink:href="#DejaVuSerif-73" transform="translate(338.525391 0)"/>
       <use xlink:href="#DejaVuSerif-65" transform="translate(389.84375 0)"/>
       <use xlink:href="#DejaVuSerif-64" transform="translate(449.023438 0)"/>
       <use xlink:href="#DejaVuSerif-20" transform="translate(513.037109 0)"/>
       <use xlink:href="#DejaVuSerif-73" transform="translate(544.824219 0)"/>
       <use xlink:href="#DejaVuSerif-61" transform="translate(596.142578 0)"/>
       <use xlink:href="#DejaVuSerif-6d" transform="translate(655.761719 0)"/>
       <use xlink:href="#DejaVuSerif-70" transform="translate(750.585938 0)"/>
       <use xlink:href="#DejaVuSerif-6c" transform="translate(814.599609 0)"/>
       <use xlink:href="#DejaVuSerif-65" transform="translate(846.582031 0)"/>
       <use xlink:href="#DejaVuSerif-20" transform="translate(905.761719 0)"/>
       <use xlink:href="#DejaVuSerif-6d" transform="translate(937.548828 0)"/>
       <use xlink:href="#DejaVuSerif-61" transform="translate(1032.373047 0)"/>
       <use xlink:href="#DejaVuSerif-73" transform="translate(1091.992188 0)"/>
       <use xlink:href="#DejaVuSerif-73" transform="translate(1143.310547 0)"/>
      </g>
     </g>
    </g>
    <g id="ytick_4">
     <g id="line2d_12">
      <g>
       <use xlink:href="#m57e902af78" x="148.396938" y="178.685408" style="stroke: #000000; stroke-width: 0.8"/>
      </g>
     </g>
     <g id="text_13">
      <!-- energy per accepted mass -->
      <g transform="translate(40.609125 181.572814) scale(0.076 -0.076)">
       <defs>
        <path id="DejaVuSerif-79" d="M 1381 -609 
L 1600 -56 
L 359 2988 
L -19 2988 
L -19 3322 
L 1509 3322 
L 1509 2988 
L 978 2988 
L 1913 703 
L 2847 2988 
L 2350 2988 
L 2350 3322 
L 3597 3322 
L 3597 2988 
L 3225 2988 
L 1703 -750 
Q 1547 -1138 1356 -1280 
Q 1166 -1422 819 -1422 
Q 672 -1422 517 -1397 
Q 363 -1372 206 -1325 
L 206 -691 
L 500 -691 
Q 519 -903 608 -995 
Q 697 -1088 884 -1088 
Q 1056 -1088 1161 -992 
Q 1266 -897 1381 -609 
z
" transform="scale(0.015625)"/>
       </defs>
       <use xlink:href="#DejaVuSerif-65"/>
       <use xlink:href="#DejaVuSerif-6e" transform="translate(59.179688 0)"/>
       <use xlink:href="#DejaVuSerif-65" transform="translate(123.583984 0)"/>
       <use xlink:href="#DejaVuSerif-72" transform="translate(182.763672 0)"/>
       <use xlink:href="#DejaVuSerif-67" transform="translate(230.566406 0)"/>
       <use xlink:href="#DejaVuSerif-79" transform="translate(294.580078 0)"/>
       <use xlink:href="#DejaVuSerif-20" transform="translate(351.074219 0)"/>
       <use xlink:href="#DejaVuSerif-70" transform="translate(382.861328 0)"/>
       <use xlink:href="#DejaVuSerif-65" transform="translate(446.875 0)"/>
       <use xlink:href="#DejaVuSerif-72" transform="translate(506.054688 0)"/>
       <use xlink:href="#DejaVuSerif-20" transform="translate(553.857422 0)"/>
       <use xlink:href="#DejaVuSerif-61" transform="translate(585.644531 0)"/>
       <use xlink:href="#DejaVuSerif-63" transform="translate(645.263672 0)"/>
       <use xlink:href="#DejaVuSerif-63" transform="translate(701.269531 0)"/>
       <use xlink:href="#DejaVuSerif-65" transform="translate(757.275391 0)"/>
       <use xlink:href="#DejaVuSerif-70" transform="translate(816.455078 0)"/>
       <use xlink:href="#DejaVuSerif-74" transform="translate(880.46875 0)"/>
       <use xlink:href="#DejaVuSerif-65" transform="translate(920.654297 0)"/>
       <use xlink:href="#DejaVuSerif-64" transform="translate(979.833984 0)"/>
       <use xlink:href="#DejaVuSerif-20" transform="translate(1043.847656 0)"/>
       <use xlink:href="#DejaVuSerif-6d" transform="translate(1075.634766 0)"/>
       <use xlink:href="#DejaVuSerif-61" transform="translate(1170.458984 0)"/>
       <use xlink:href="#DejaVuSerif-73" transform="translate(1230.078125 0)"/>
       <use xlink:href="#DejaVuSerif-73" transform="translate(1281.396484 0)"/>
      </g>
     </g>
    </g>
    <g id="ytick_5">
     <g id="line2d_13">
      <g>
       <use xlink:href="#m57e902af78" x="148.396938" y="219.67336" style="stroke: #000000; stroke-width: 0.8"/>
      </g>
     </g>
     <g id="text_14">
      <!-- wall-plug-to-cavity efficiency -->
      <g style="fill: #d9730a" transform="translate(18.966938 222.560766) scale(0.076 -0.076)">
       <defs>
        <path id="DejaVuSerif-Bold-77" d="M 3450 3322 
L 4206 1106 
L 4831 2944 
L 4397 2944 
L 4397 3322 
L 5638 3322 
L 5638 2944 
L 5247 2944 
L 4244 0 
L 3481 0 
L 2778 2081 
L 2069 0 
L 1313 0 
L 306 2944 
L -56 2944 
L -56 3322 
L 1825 3322 
L 1825 2944 
L 1434 2944 
L 2047 1147 
L 2791 3322 
L 3450 3322 
z
" transform="scale(0.015625)"/>
        <path id="DejaVuSerif-Bold-61" d="M 3525 2041 
L 3525 378 
L 4000 378 
L 4000 0 
L 2419 0 
L 2419 422 
Q 2200 159 1931 34 
Q 1663 -91 1319 -91 
Q 809 -91 536 182 
Q 263 456 263 966 
Q 263 1525 655 1803 
Q 1047 2081 1838 2081 
L 2419 2081 
L 2419 2278 
Q 2419 2681 2228 2873 
Q 2038 3066 1638 3066 
Q 1306 3066 1126 2930 
Q 947 2794 872 2484 
L 519 2484 
L 519 3200 
Q 816 3306 1134 3359 
Q 1453 3413 1806 3413 
Q 2697 3413 3111 3081 
Q 3525 2750 3525 2041 
z
M 2419 1044 
L 2419 1709 
L 2003 1709 
Q 1694 1709 1528 1540 
Q 1363 1372 1363 1056 
Q 1363 741 1483 584 
Q 1603 428 1850 428 
Q 2106 428 2262 597 
Q 2419 766 2419 1044 
z
" transform="scale(0.015625)"/>
        <path id="DejaVuSerif-Bold-6c" d="M 1797 378 
L 2272 378 
L 2272 0 
L 219 0 
L 219 378 
L 691 378 
L 691 4488 
L 219 4488 
L 219 4863 
L 1797 4863 
L 1797 378 
z
" transform="scale(0.015625)"/>
        <path id="DejaVuSerif-Bold-2d" d="M 347 2138 
L 2309 2138 
L 2309 1294 
L 347 1294 
L 347 2138 
z
" transform="scale(0.015625)"/>
        <path id="DejaVuSerif-Bold-70" d="M 1728 1825 
L 1728 1497 
Q 1728 916 1876 656 
Q 2025 397 2356 397 
Q 2697 397 2836 672 
Q 2975 947 2975 1663 
Q 2975 2378 2836 2651 
Q 2697 2925 2356 2925 
Q 2025 2925 1876 2665 
Q 1728 2406 1728 1825 
z
M 622 2944 
L 147 2944 
L 147 3322 
L 1728 3322 
L 1728 2900 
Q 1869 3159 2106 3286 
Q 2344 3413 2694 3413 
Q 3403 3413 3811 2945 
Q 4219 2478 4219 1663 
Q 4219 847 3811 378 
Q 3403 -91 2694 -91 
Q 2344 -91 2106 36 
Q 1869 163 1728 422 
L 1728 -953 
L 2241 -953 
L 2241 -1331 
L 147 -1331 
L 147 -953 
L 622 -953 
L 622 2944 
z
" transform="scale(0.015625)"/>
        <path id="DejaVuSerif-Bold-75" d="M 3963 3322 
L 3963 378 
L 4434 378 
L 4434 0 
L 2853 0 
L 2853 469 
Q 2656 172 2400 40 
Q 2144 -91 1753 -91 
Q 1194 -91 908 239 
Q 622 569 622 1209 
L 622 2944 
L 147 2944 
L 147 3322 
L 1728 3322 
L 1728 1381 
Q 1728 763 1831 595 
Q 1934 428 2209 428 
Q 2544 428 2698 675 
Q 2853 922 2853 1459 
L 2853 2944 
L 2450 2944 
L 2450 3322 
L 3963 3322 
z
" transform="scale(0.015625)"/>
        <path id="DejaVuSerif-Bold-67" d="M 3853 2944 
L 3853 44 
Q 3853 -656 3354 -1039 
Q 2856 -1422 1947 -1422 
Q 1616 -1422 1275 -1370 
Q 934 -1319 575 -1216 
L 575 -422 
L 928 -422 
Q 975 -750 1192 -909 
Q 1409 -1069 1813 -1069 
Q 2325 -1069 2536 -823 
Q 2747 -578 2747 44 
L 2747 422 
Q 2606 163 2367 36 
Q 2128 -91 1778 -91 
Q 1072 -91 667 378 
Q 263 847 263 1663 
Q 263 2481 667 2947 
Q 1072 3413 1778 3413 
Q 2128 3413 2367 3286 
Q 2606 3159 2747 2900 
L 2747 3322 
L 4325 3322 
L 4325 2944 
L 3853 2944 
z
M 2747 1825 
Q 2747 2406 2597 2665 
Q 2447 2925 2119 2925 
Q 1775 2925 1636 2651 
Q 1497 2378 1497 1663 
Q 1497 947 1637 672 
Q 1778 397 2119 397 
Q 2447 397 2597 656 
Q 2747 916 2747 1497 
L 2747 1825 
z
" transform="scale(0.015625)"/>
        <path id="DejaVuSerif-Bold-74" d="M 634 2944 
L 153 2944 
L 153 3322 
L 634 3322 
L 634 4353 
L 1741 4353 
L 1741 3322 
L 2663 3322 
L 2663 2944 
L 1741 2944 
L 1741 909 
Q 1741 475 1809 369 
Q 1878 263 2059 263 
Q 2259 263 2356 397 
Q 2453 531 2459 813 
L 2925 813 
Q 2897 313 2651 111 
Q 2406 -91 1806 -91 
Q 1122 -91 878 123 
Q 634 338 634 909 
L 634 2944 
z
" transform="scale(0.015625)"/>
        <path id="DejaVuSerif-Bold-6f" d="M 2138 263 
Q 2488 263 2630 563 
Q 2772 863 2772 1663 
Q 2772 2463 2631 2761 
Q 2491 3059 2138 3059 
Q 1784 3059 1640 2757 
Q 1497 2456 1497 1663 
Q 1497 869 1640 566 
Q 1784 263 2138 263 
z
M 2138 -91 
Q 1259 -91 761 376 
Q 263 844 263 1663 
Q 263 2484 761 2948 
Q 1259 3413 2138 3413 
Q 3019 3413 3516 2948 
Q 4013 2484 4013 1663 
Q 4013 844 3514 376 
Q 3016 -91 2138 -91 
z
" transform="scale(0.015625)"/>
        <path id="DejaVuSerif-Bold-63" d="M 3609 1038 
Q 3491 469 3123 189 
Q 2756 -91 2125 -91 
Q 1238 -91 750 368 
Q 263 828 263 1663 
Q 263 2488 744 2950 
Q 1225 3413 2081 3413 
Q 2428 3413 2781 3347 
Q 3134 3281 3500 3150 
L 3500 2228 
L 3150 2228 
Q 3100 2650 2903 2854 
Q 2706 3059 2350 3059 
Q 1888 3059 1692 2746 
Q 1497 2434 1497 1663 
Q 1497 909 1687 586 
Q 1878 263 2309 263 
Q 2644 263 2845 463 
Q 3047 663 3091 1038 
L 3609 1038 
z
" transform="scale(0.015625)"/>
        <path id="DejaVuSerif-Bold-76" d="M 1428 0 
L 250 2944 
L -116 2944 
L -116 3322 
L 1791 3322 
L 1791 2944 
L 1388 2944 
L 2228 844 
L 3066 2944 
L 2631 2944 
L 2631 3322 
L 3878 3322 
L 3878 2944 
L 3494 2944 
L 2316 0 
L 1428 0 
z
" transform="scale(0.015625)"/>
        <path id="DejaVuSerif-Bold-69" d="M 588 4263 
Q 588 4516 763 4689 
Q 938 4863 1191 4863 
Q 1438 4863 1611 4689 
Q 1784 4516 1784 4263 
Q 1784 4016 1611 3842 
Q 1438 3669 1191 3669 
Q 938 3669 763 3841 
Q 588 4013 588 4263 
z
M 1797 378 
L 2272 378 
L 2272 0 
L 219 0 
L 219 378 
L 691 378 
L 691 2944 
L 219 2944 
L 219 3322 
L 1797 3322 
L 1797 378 
z
" transform="scale(0.015625)"/>
        <path id="DejaVuSerif-Bold-79" d="M 1997 -750 
Q 1847 -1116 1634 -1269 
Q 1422 -1422 1063 -1422 
Q 909 -1422 721 -1387 
Q 534 -1353 313 -1288 
L 313 -594 
L 666 -597 
Q 675 -838 779 -953 
Q 884 -1069 1094 -1069 
Q 1297 -1069 1422 -958 
Q 1547 -847 1672 -538 
L 1722 -422 
L 275 2944 
L -84 2944 
L -84 3322 
L 1831 3322 
L 1831 2944 
L 1434 2944 
L 2278 978 
L 3066 2944 
L 2625 2944 
L 2625 3322 
L 3872 3322 
L 3872 2944 
L 3469 2944 
L 1997 -750 
z
" transform="scale(0.015625)"/>
        <path id="DejaVuSerif-Bold-20" transform="scale(0.015625)"/>
        <path id="DejaVuSerif-Bold-65" d="M 2566 1875 
Q 2566 2531 2444 2795 
Q 2322 3059 2028 3059 
Q 1744 3059 1620 2800 
Q 1497 2541 1497 1931 
L 1497 1875 
L 2566 1875 
z
M 3781 1503 
L 1497 1503 
L 1497 1478 
Q 1497 834 1690 548 
Q 1884 263 2316 263 
Q 2675 263 2897 453 
Q 3119 644 3181 1006 
L 3700 1006 
Q 3566 441 3166 175 
Q 2766 -91 2047 -91 
Q 1184 -91 723 364 
Q 263 819 263 1663 
Q 263 2488 734 2950 
Q 1206 3413 2047 3413 
Q 2872 3413 3312 2927 
Q 3753 2441 3781 1503 
z
" transform="scale(0.015625)"/>
        <path id="DejaVuSerif-Bold-66" d="M 3097 4031 
L 2747 4031 
Q 2722 4275 2605 4394 
Q 2488 4513 2272 4513 
Q 2022 4513 1909 4333 
Q 1797 4153 1797 3750 
L 1797 3322 
L 2631 3322 
L 2631 2944 
L 1797 2944 
L 1797 378 
L 2438 378 
L 2438 0 
L 219 0 
L 219 378 
L 691 378 
L 691 2944 
L 197 2944 
L 197 3322 
L 691 3322 
L 691 3738 
Q 691 4291 1044 4577 
Q 1397 4863 2081 4863 
Q 2347 4863 2600 4833 
Q 2853 4803 3097 4744 
L 3097 4031 
z
" transform="scale(0.015625)"/>
        <path id="DejaVuSerif-Bold-6e" d="M 219 0 
L 219 378 
L 691 378 
L 691 2944 
L 219 2944 
L 219 3322 
L 1797 3322 
L 1797 2853 
Q 1997 3150 2253 3281 
Q 2509 3413 2900 3413 
Q 3459 3413 3745 3083 
Q 4031 2753 4031 2113 
L 4031 378 
L 4506 378 
L 4506 0 
L 2522 0 
L 2522 378 
L 2925 378 
L 2925 2144 
Q 2925 2566 2817 2730 
Q 2709 2894 2444 2894 
Q 2109 2894 1953 2648 
Q 1797 2403 1797 1869 
L 1797 378 
L 2203 378 
L 2203 0 
L 219 0 
z
" transform="scale(0.015625)"/>
       </defs>
       <use xlink:href="#DejaVuSerif-Bold-77"/>
       <use xlink:href="#DejaVuSerif-Bold-61" transform="translate(86.083984 0)"/>
       <use xlink:href="#DejaVuSerif-Bold-6c" transform="translate(150.878906 0)"/>
       <use xlink:href="#DejaVuSerif-Bold-6c" transform="translate(188.867188 0)"/>
       <use xlink:href="#DejaVuSerif-Bold-2d" transform="translate(226.855469 0)"/>
       <use xlink:href="#DejaVuSerif-Bold-70" transform="translate(268.359375 0)"/>
       <use xlink:href="#DejaVuSerif-Bold-6c" transform="translate(338.28125 0)"/>
       <use xlink:href="#DejaVuSerif-Bold-75" transform="translate(376.269531 0)"/>
       <use xlink:href="#DejaVuSerif-Bold-67" transform="translate(448.974609 0)"/>
       <use xlink:href="#DejaVuSerif-Bold-2d" transform="translate(518.896484 0)"/>
       <use xlink:href="#DejaVuSerif-Bold-74" transform="translate(560.400391 0)"/>
       <use xlink:href="#DejaVuSerif-Bold-6f" transform="translate(606.591797 0)"/>
       <use xlink:href="#DejaVuSerif-Bold-2d" transform="translate(673.291016 0)"/>
       <use xlink:href="#DejaVuSerif-Bold-63" transform="translate(714.794922 0)"/>
       <use xlink:href="#DejaVuSerif-Bold-61" transform="translate(775.683594 0)"/>
       <use xlink:href="#DejaVuSerif-Bold-76" transform="translate(840.478516 0)"/>
       <use xlink:href="#DejaVuSerif-Bold-69" transform="translate(898.583984 0)"/>
       <use xlink:href="#DejaVuSerif-Bold-74" transform="translate(936.572266 0)"/>
       <use xlink:href="#DejaVuSerif-Bold-79" transform="translate(982.763672 0)"/>
       <use xlink:href="#DejaVuSerif-Bold-20" transform="translate(1040.869141 0)"/>
       <use xlink:href="#DejaVuSerif-Bold-65" transform="translate(1075.683594 0)"/>
       <use xlink:href="#DejaVuSerif-Bold-66" transform="translate(1139.306641 0)"/>
       <use xlink:href="#DejaVuSerif-Bold-66" transform="translate(1182.324219 0)"/>
       <use xlink:href="#DejaVuSerif-Bold-69" transform="translate(1225.341797 0)"/>
       <use xlink:href="#DejaVuSerif-Bold-63" transform="translate(1263.330078 0)"/>
       <use xlink:href="#DejaVuSerif-Bold-69" transform="translate(1324.21875 0)"/>
       <use xlink:href="#DejaVuSerif-Bold-65" transform="translate(1362.207031 0)"/>
       <use xlink:href="#DejaVuSerif-Bold-6e" transform="translate(1425.830078 0)"/>
       <use xlink:href="#DejaVuSerif-Bold-63" transform="translate(1498.535156 0)"/>
       <use xlink:href="#DejaVuSerif-Bold-79" transform="translate(1559.423828 0)"/>
      </g>
     </g>
    </g>
    <g id="ytick_6">
     <g id="line2d_14">
      <g>
       <use xlink:href="#m57e902af78" x="148.396938" y="260.661312" style="stroke: #000000; stroke-width: 0.8"/>
      </g>
     </g>
     <g id="text_15">
      <!-- deployed active source capacity -->
      <g style="fill: #d9730a" transform="translate(7.2 263.548718) scale(0.076 -0.076)">
       <defs>
        <path id="DejaVuSerif-Bold-64" d="M 2747 1497 
L 2747 1825 
Q 2747 2406 2597 2665 
Q 2447 2925 2119 2925 
Q 1775 2925 1636 2651 
Q 1497 2378 1497 1663 
Q 1497 947 1637 672 
Q 1778 397 2119 397 
Q 2447 397 2597 656 
Q 2747 916 2747 1497 
z
M 3853 378 
L 4325 378 
L 4325 0 
L 2747 0 
L 2747 422 
Q 2606 163 2367 36 
Q 2128 -91 1778 -91 
Q 1072 -91 667 378 
Q 263 847 263 1663 
Q 263 2481 667 2947 
Q 1072 3413 1778 3413 
Q 2128 3413 2367 3286 
Q 2606 3159 2747 2900 
L 2747 4488 
L 2272 4488 
L 2272 4863 
L 3853 4863 
L 3853 378 
z
" transform="scale(0.015625)"/>
        <path id="DejaVuSerif-Bold-73" d="M 300 97 
L 300 1025 
L 653 1025 
Q 697 653 931 458 
Q 1166 263 1569 263 
Q 1906 263 2086 380 
Q 2266 497 2266 716 
Q 2266 916 2152 1025 
Q 2038 1134 1709 1216 
L 1253 1331 
Q 738 1459 506 1698 
Q 275 1938 275 2344 
Q 275 2884 650 3148 
Q 1025 3413 1806 3413 
Q 2100 3413 2433 3364 
Q 2766 3316 3169 3213 
L 3169 2375 
L 2816 2375 
Q 2788 2716 2573 2887 
Q 2359 3059 1959 3059 
Q 1622 3059 1448 2951 
Q 1275 2844 1275 2638 
Q 1275 2469 1375 2372 
Q 1475 2275 1734 2209 
L 2188 2094 
Q 2841 1928 3091 1684 
Q 3341 1441 3341 1006 
Q 3341 444 2939 176 
Q 2538 -91 1691 -91 
Q 1381 -91 1034 -44 
Q 688 3 300 97 
z
" transform="scale(0.015625)"/>
        <path id="DejaVuSerif-Bold-72" d="M 3438 3359 
L 3438 2369 
L 3084 2369 
Q 3066 2634 2941 2764 
Q 2816 2894 2578 2894 
Q 2216 2894 2006 2575 
Q 1797 2256 1797 1691 
L 1797 378 
L 2400 378 
L 2400 0 
L 219 0 
L 219 378 
L 691 378 
L 691 2944 
L 184 2944 
L 184 3322 
L 1797 3322 
L 1797 2731 
Q 1959 3078 2226 3245 
Q 2494 3413 2881 3413 
Q 2978 3413 3117 3398 
Q 3256 3384 3438 3359 
z
" transform="scale(0.015625)"/>
       </defs>
       <use xlink:href="#DejaVuSerif-Bold-64"/>
       <use xlink:href="#DejaVuSerif-Bold-65" transform="translate(69.921875 0)"/>
       <use xlink:href="#DejaVuSerif-Bold-70" transform="translate(133.544922 0)"/>
       <use xlink:href="#DejaVuSerif-Bold-6c" transform="translate(203.466797 0)"/>
       <use xlink:href="#DejaVuSerif-Bold-6f" transform="translate(241.455078 0)"/>
       <use xlink:href="#DejaVuSerif-Bold-79" transform="translate(308.154297 0)"/>
       <use xlink:href="#DejaVuSerif-Bold-65" transform="translate(366.259766 0)"/>
       <use xlink:href="#DejaVuSerif-Bold-64" transform="translate(429.882812 0)"/>
       <use xlink:href="#DejaVuSerif-Bold-20" transform="translate(499.804688 0)"/>
       <use xlink:href="#DejaVuSerif-Bold-61" transform="translate(534.619141 0)"/>
       <use xlink:href="#DejaVuSerif-Bold-63" transform="translate(599.414062 0)"/>
       <use xlink:href="#DejaVuSerif-Bold-74" transform="translate(660.302734 0)"/>
       <use xlink:href="#DejaVuSerif-Bold-69" transform="translate(706.494141 0)"/>
       <use xlink:href="#DejaVuSerif-Bold-76" transform="translate(744.482422 0)"/>
       <use xlink:href="#DejaVuSerif-Bold-65" transform="translate(802.587891 0)"/>
       <use xlink:href="#DejaVuSerif-Bold-20" transform="translate(866.210938 0)"/>
       <use xlink:href="#DejaVuSerif-Bold-73" transform="translate(901.025391 0)"/>
       <use xlink:href="#DejaVuSerif-Bold-6f" transform="translate(957.324219 0)"/>
       <use xlink:href="#DejaVuSerif-Bold-75" transform="translate(1024.023438 0)"/>
       <use xlink:href="#DejaVuSerif-Bold-72" transform="translate(1096.728516 0)"/>
       <use xlink:href="#DejaVuSerif-Bold-63" transform="translate(1149.414062 0)"/>
       <use xlink:href="#DejaVuSerif-Bold-65" transform="translate(1210.302734 0)"/>
       <use xlink:href="#DejaVuSerif-Bold-20" transform="translate(1273.925781 0)"/>
       <use xlink:href="#DejaVuSerif-Bold-63" transform="translate(1308.740234 0)"/>
       <use xlink:href="#DejaVuSerif-Bold-61" transform="translate(1369.628906 0)"/>
       <use xlink:href="#DejaVuSerif-Bold-70" transform="translate(1434.423828 0)"/>
       <use xlink:href="#DejaVuSerif-Bold-61" transform="translate(1504.345703 0)"/>
       <use xlink:href="#DejaVuSerif-Bold-63" transform="translate(1569.140625 0)"/>
       <use xlink:href="#DejaVuSerif-Bold-69" transform="translate(1630.029297 0)"/>
       <use xlink:href="#DejaVuSerif-Bold-74" transform="translate(1668.017578 0)"/>
       <use xlink:href="#DejaVuSerif-Bold-79" transform="translate(1714.208984 0)"/>
      </g>
     </g>
    </g>
   </g>
   <g id="line2d_15">
    <path d="M 148.396938 293.062288 
L 148.396938 31.108288 
" clip-path="url(#pde678315e0)" style="fill: none; stroke: #888888; stroke-width: 0.8; stroke-linecap: square"/>
   </g>
   <g id="patch_4">
    <path d="M 148.396938 293.062288 
L 148.396938 31.108288 
" style="fill: none; stroke: #000000; stroke-width: 0.8; stroke-linejoin: miter; stroke-linecap: square"/>
   </g>
   <g id="patch_5">
    <path d="M 148.396938 293.062288 
L 538.996938 293.062288 
" style="fill: none; stroke: #000000; stroke-width: 0.8; stroke-linejoin: miter; stroke-linecap: square"/>
   </g>
   <g id="patch_6">
    <path d="M 148.396938 43.015288 
L 473.896938 43.015288 
L 473.896938 68.427818 
L 148.396938 68.427818 
z
" clip-path="url(#pde678315e0)" style="fill: #2c7fb8; stroke: #ffffff; stroke-linejoin: miter"/>
   </g>
   <g id="text_16">
    <!-- 7/7 -->
    <g style="fill: #2c7fb8" transform="translate(479.476937 57.653115) scale(0.07 -0.07)">
     <defs>
      <path id="DejaVuSerif-Bold-37" d="M 3922 3872 
L 1997 0 
L 1363 0 
L 3238 3781 
L 934 3781 
L 934 3150 
L 506 3150 
L 506 4666 
L 3922 4666 
L 3922 3872 
z
" transform="scale(0.015625)"/>
      <path id="DejaVuSerif-Bold-2f" d="M 1644 4666 
L 2338 4666 
L 691 -594 
L 0 -594 
L 1644 4666 
z
" transform="scale(0.015625)"/>
     </defs>
     <use xlink:href="#DejaVuSerif-Bold-37"/>
     <use xlink:href="#DejaVuSerif-Bold-2f" transform="translate(69.580078 0)"/>
     <use xlink:href="#DejaVuSerif-Bold-37" transform="translate(106.103516 0)"/>
    </g>
   </g>
   <g id="patch_7">
    <path d="M 148.396938 84.003239 
L 473.896938 84.003239 
L 473.896938 109.415769 
L 148.396938 109.415769 
z
" clip-path="url(#pde678315e0)" style="fill: #2c7fb8; stroke: #ffffff; stroke-linejoin: miter"/>
   </g>
   <g id="text_17">
    <!-- 7/7 -->
    <g style="fill: #2c7fb8" transform="translate(479.476937 98.641067) scale(0.07 -0.07)">
     <use xlink:href="#DejaVuSerif-Bold-37"/>
     <use xlink:href="#DejaVuSerif-Bold-2f" transform="translate(69.580078 0)"/>
     <use xlink:href="#DejaVuSerif-Bold-37" transform="translate(106.103516 0)"/>
    </g>
   </g>
   <g id="patch_8">
    <path d="M 148.396938 124.991191 
L 427.396938 124.991191 
L 427.396938 150.403721 
L 148.396938 150.403721 
z
" clip-path="url(#pde678315e0)" style="fill: #2c7fb8; stroke: #ffffff; stroke-linejoin: miter"/>
   </g>
   <g id="patch_9">
    <path d="M 427.396938 124.991191 
L 473.896938 124.991191 
L 473.896938 150.403721 
L 427.396938 150.403721 
z
" clip-path="url(#pde678315e0)" style="fill: #9ecae1; stroke: #ffffff; stroke-linejoin: miter"/>
   </g>
   <g id="text_18">
    <!-- 6/7  (+1 partial) -->
    <g style="fill: #2c7fb8" transform="translate(479.476937 139.629019) scale(0.07 -0.07)">
     <defs>
      <path id="DejaVuSerif-Bold-36" d="M 1575 2766 
Q 1778 2928 2029 3009 
Q 2281 3091 2578 3091 
Q 3294 3091 3701 2672 
Q 4109 2253 4109 1522 
Q 4109 750 3650 329 
Q 3191 -91 2344 -91 
Q 1388 -91 895 486 
Q 403 1063 403 2181 
Q 403 3453 950 4101 
Q 1497 4750 2572 4750 
Q 2853 4750 3175 4703 
Q 3497 4656 3866 4563 
L 3866 3738 
L 3488 3738 
Q 3409 4056 3192 4220 
Q 2975 4384 2631 4384 
Q 2075 4384 1826 4003 
Q 1578 3622 1575 2766 
z
M 2272 275 
Q 2594 275 2731 548 
Q 2869 822 2869 1497 
Q 2869 2172 2731 2445 
Q 2594 2719 2272 2719 
Q 1950 2719 1814 2445 
Q 1678 2172 1678 1497 
Q 1678 822 1814 548 
Q 1950 275 2272 275 
z
" transform="scale(0.015625)"/>
      <path id="DejaVuSerif-Bold-28" d="M 2694 -997 
Q 1641 -606 1122 122 
Q 603 850 603 1931 
Q 603 3013 1115 3731 
Q 1628 4450 2694 4863 
L 2694 4488 
Q 2200 4188 1983 3598 
Q 1766 3009 1766 1931 
Q 1766 856 1983 267 
Q 2200 -322 2694 -622 
L 2694 -997 
z
" transform="scale(0.015625)"/>
      <path id="DejaVuSerif-Bold-2b" d="M 3041 4013 
L 3041 2369 
L 4684 2369 
L 4684 1650 
L 3041 1650 
L 3041 6 
L 2322 6 
L 2322 1650 
L 678 1650 
L 678 2369 
L 2322 2369 
L 2322 4013 
L 3041 4013 
z
" transform="scale(0.015625)"/>
      <path id="DejaVuSerif-Bold-31" d="M 878 0 
L 878 378 
L 1753 378 
L 1753 4153 
L 781 3578 
L 781 4044 
L 1953 4750 
L 2938 4750 
L 2938 378 
L 3816 378 
L 3816 0 
L 878 0 
z
" transform="scale(0.015625)"/>
      <path id="DejaVuSerif-Bold-29" d="M 325 -997 
L 325 -622 
Q 819 -322 1036 267 
Q 1253 856 1253 1931 
Q 1253 3009 1036 3598 
Q 819 4188 325 4488 
L 325 4863 
Q 1391 4450 1905 3731 
Q 2419 3013 2419 1931 
Q 2419 850 1898 122 
Q 1378 -606 325 -997 
z
" transform="scale(0.015625)"/>
     </defs>
     <use xlink:href="#DejaVuSerif-Bold-36"/>
     <use xlink:href="#DejaVuSerif-Bold-2f" transform="translate(69.580078 0)"/>
     <use xlink:href="#DejaVuSerif-Bold-37" transform="translate(106.103516 0)"/>
     <use xlink:href="#DejaVuSerif-Bold-20" transform="translate(175.683594 0)"/>
     <use xlink:href="#DejaVuSerif-Bold-20" transform="translate(210.498047 0)"/>
     <use xlink:href="#DejaVuSerif-Bold-28" transform="translate(245.3125 0)"/>
     <use xlink:href="#DejaVuSerif-Bold-2b" transform="translate(292.626953 0)"/>
     <use xlink:href="#DejaVuSerif-Bold-31" transform="translate(376.416016 0)"/>
     <use xlink:href="#DejaVuSerif-Bold-20" transform="translate(445.996094 0)"/>
     <use xlink:href="#DejaVuSerif-Bold-70" transform="translate(480.810547 0)"/>
     <use xlink:href="#DejaVuSerif-Bold-61" transform="translate(550.732422 0)"/>
     <use xlink:href="#DejaVuSerif-Bold-72" transform="translate(615.527344 0)"/>
     <use xlink:href="#DejaVuSerif-Bold-74" transform="translate(668.212891 0)"/>
     <use xlink:href="#DejaVuSerif-Bold-69" transform="translate(714.404297 0)"/>
     <use xlink:href="#DejaVuSerif-Bold-61" transform="translate(752.392578 0)"/>
     <use xlink:href="#DejaVuSerif-Bold-6c" transform="translate(817.1875 0)"/>
     <use xlink:href="#DejaVuSerif-Bold-29" transform="translate(855.175781 0)"/>
    </g>
   </g>
   <g id="patch_10">
    <path d="M 148.396938 165.979143 
L 241.396938 165.979143 
L 241.396938 191.391673 
L 148.396938 191.391673 
z
" clip-path="url(#pde678315e0)" style="fill: #2c7fb8; stroke: #ffffff; stroke-linejoin: miter"/>
   </g>
   <g id="text_19">
    <!-- 2/7 -->
    <g style="fill: #2c7fb8" transform="translate(246.976938 180.61697) scale(0.07 -0.07)">
     <defs>
      <path id="DejaVuSerif-Bold-32" d="M 844 3513 
L 469 3513 
L 469 4519 
Q 850 4634 1223 4692 
Q 1597 4750 1978 4750 
Q 2869 4750 3367 4386 
Q 3866 4022 3866 3372 
Q 3866 2909 3591 2542 
Q 3316 2175 2541 1672 
L 1241 819 
L 3450 819 
L 3450 1369 
L 3878 1369 
L 3878 0 
L 428 0 
L 428 763 
L 1119 1241 
Q 2003 1850 2297 2278 
Q 2591 2706 2591 3278 
Q 2591 3819 2367 4101 
Q 2144 4384 1716 4384 
Q 1347 4384 1125 4161 
Q 903 3938 844 3513 
z
" transform="scale(0.015625)"/>
     </defs>
     <use xlink:href="#DejaVuSerif-Bold-32"/>
     <use xlink:href="#DejaVuSerif-Bold-2f" transform="translate(69.580078 0)"/>
     <use xlink:href="#DejaVuSerif-Bold-37" transform="translate(106.103516 0)"/>
    </g>
   </g>
   <g id="patch_11">
    <path d="M 148.396938 206.967095 
L 148.396938 206.967095 
L 148.396938 232.379625 
L 148.396938 232.379625 
z
" clip-path="url(#pde678315e0)" style="fill: #d9730a; stroke: #ffffff; stroke-linejoin: miter"/>
   </g>
   <g id="text_20">
    <!-- 0/7 -->
    <g style="fill: #d9730a" transform="translate(153.976938 221.604922) scale(0.07 -0.07)">
     <defs>
      <path id="DejaVuSerif-Bold-30" d="M 2228 275 
Q 2603 275 2742 615 
Q 2881 956 2881 2328 
Q 2881 3691 2742 4037 
Q 2603 4384 2228 4384 
Q 1853 4384 1714 4043 
Q 1575 3703 1575 2328 
Q 1575 956 1714 615 
Q 1853 275 2228 275 
z
M 2228 -91 
Q 1294 -91 797 532 
Q 300 1156 300 2328 
Q 300 3500 797 4125 
Q 1294 4750 2228 4750 
Q 3159 4750 3656 4125 
Q 4153 3500 4153 2328 
Q 4153 1156 3656 532 
Q 3159 -91 2228 -91 
z
" transform="scale(0.015625)"/>
     </defs>
     <use xlink:href="#DejaVuSerif-Bold-30"/>
     <use xlink:href="#DejaVuSerif-Bold-2f" transform="translate(69.580078 0)"/>
     <use xlink:href="#DejaVuSerif-Bold-37" transform="translate(106.103516 0)"/>
    </g>
   </g>
   <g id="patch_12">
    <path d="M 148.396938 247.955047 
L 148.396938 247.955047 
L 148.396938 273.367577 
L 148.396938 273.367577 
z
" clip-path="url(#pde678315e0)" style="fill: #d9730a; stroke: #ffffff; stroke-linejoin: miter"/>
   </g>
   <g id="text_21">
    <!-- 0/7 -->
    <g style="fill: #d9730a" transform="translate(153.976938 262.592874) scale(0.07 -0.07)">
     <use xlink:href="#DejaVuSerif-Bold-30"/>
     <use xlink:href="#DejaVuSerif-Bold-2f" transform="translate(69.580078 0)"/>
     <use xlink:href="#DejaVuSerif-Bold-37" transform="translate(106.103516 0)"/>
    </g>
   </g>
   <g id="text_22">
    <!-- decisive for the -->
    <g style="fill: #d9730a" transform="translate(485.194938 238.350036) scale(0.064 -0.064)">
     <defs>
      <path id="DejaVuSerif-Italic-64" d="M 3841 4863 
L 2897 0 
L 2322 0 
L 2422 519 
Q 2191 206 1902 57 
Q 1613 -91 1228 -91 
Q 616 -91 322 394 
Q 125 716 125 1166 
Q 125 1397 178 1663 
Q 331 2444 812 2928 
Q 1294 3413 1909 3413 
Q 2294 3413 2525 3264 
Q 2756 3116 2866 2803 
L 3200 4531 
L 2656 4531 
L 2722 4863 
L 3841 4863 
z
M 2613 1497 
L 2675 1825 
Q 2722 2069 2722 2266 
Q 2722 2550 2622 2738 
Q 2456 3053 2019 3053 
Q 1575 3053 1279 2703 
Q 984 2353 850 1663 
Q 788 1347 788 1103 
Q 788 813 875 622 
Q 1031 269 1475 269 
Q 1913 269 2203 583 
Q 2494 897 2613 1497 
z
" transform="scale(0.015625)"/>
      <path id="DejaVuSerif-Italic-65" d="M 938 1275 
Q 925 1156 925 1050 
Q 925 756 1031 563 
Q 1216 219 1709 219 
Q 2072 219 2250 328 
Q 2569 525 2644 778 
L 3066 778 
Q 2941 381 2475 103 
Q 2150 -91 1506 -91 
Q 863 -91 516 388 
Q 272 722 272 1206 
Q 272 1419 319 1659 
Q 472 2450 1000 2931 
Q 1528 3413 2278 3413 
Q 3500 3413 3500 2547 
Q 3500 1913 2859 1603 
Q 2206 1288 938 1275 
z
M 2541 1975 
Q 2891 2181 2891 2569 
Q 2891 3103 2181 3103 
Q 1763 3103 1472 2784 
Q 1181 2466 1003 1606 
Q 2006 1653 2541 1975 
z
" transform="scale(0.015625)"/>
      <path id="DejaVuSerif-Italic-63" d="M 3163 997 
Q 2938 466 2536 187 
Q 2134 -91 1584 -91 
Q 859 -91 513 388 
Q 272 722 272 1203 
Q 272 1419 319 1663 
Q 475 2459 1008 2936 
Q 1541 3413 2266 3413 
Q 2581 3413 2879 3339 
Q 3178 3266 3463 3116 
L 3300 2266 
L 2966 2266 
Q 2966 2309 2966 2347 
Q 2966 2722 2803 2903 
Q 2622 3103 2213 3103 
Q 1747 3103 1439 2742 
Q 1131 2381 991 1663 
Q 928 1334 928 1078 
Q 928 778 1016 581 
Q 1181 219 1650 219 
Q 2022 219 2281 412 
Q 2541 606 2700 997 
L 3163 997 
z
" transform="scale(0.015625)"/>
      <path id="DejaVuSerif-Italic-69" d="M 1009 4353 
Q 1038 4497 1163 4603 
Q 1288 4709 1434 4709 
Q 1578 4709 1663 4603 
Q 1728 4522 1728 4422 
Q 1728 4388 1719 4353 
Q 1691 4206 1567 4103 
Q 1444 4000 1297 4000 
Q 1150 4000 1066 4103 
Q 1003 4181 1003 4281 
Q 1003 4316 1009 4353 
z
M 963 331 
L 1506 331 
L 1444 0 
L 325 0 
L 903 2988 
L 353 2988 
L 419 3322 
L 1544 3322 
L 963 331 
z
" transform="scale(0.015625)"/>
      <path id="DejaVuSerif-Italic-73" d="M 222 959 
L 553 959 
Q 541 869 541 788 
Q 541 219 1313 219 
Q 2088 219 2200 788 
Q 2209 844 2209 944 
Q 2209 1041 2103 1158 
Q 1997 1275 1550 1428 
L 1159 1569 
Q 759 1706 629 1882 
Q 500 2059 500 2263 
Q 500 2344 516 2438 
Q 606 2894 990 3153 
Q 1375 3413 1931 3413 
Q 2484 3413 3066 3144 
L 2925 2419 
L 2594 2419 
Q 2606 2491 2606 2553 
Q 2606 2781 2448 2942 
Q 2291 3103 1925 3103 
Q 1191 3103 1091 2591 
Q 1078 2538 1078 2444 
Q 1078 2347 1179 2237 
Q 1281 2128 1678 1997 
L 2106 1856 
Q 2550 1709 2716 1488 
Q 2831 1331 2831 1178 
Q 2831 522 2306 181 
Q 1894 -91 1262 -91 
Q 631 -91 72 184 
L 222 959 
z
" transform="scale(0.015625)"/>
      <path id="DejaVuSerif-Italic-76" d="M 1681 0 
L 1259 0 
L 619 2988 
L 241 2988 
L 303 3322 
L 1163 3322 
L 1725 703 
Q 2084 1016 2325 1413 
Q 2825 2238 3003 2988 
L 2622 2988 
L 2688 3322 
L 3547 3322 
Q 3206 2034 2775 1313 
Q 2400 688 1681 0 
z
" transform="scale(0.015625)"/>
      <path id="DejaVuSerif-Italic-20" transform="scale(0.015625)"/>
      <path id="DejaVuSerif-Italic-66" d="M 3191 4078 
L 2888 4078 
Q 2900 4144 2900 4203 
Q 2900 4347 2825 4434 
Q 2719 4556 2472 4556 
Q 2150 4556 1984 4379 
Q 1819 4203 1731 3750 
L 1647 3322 
L 2575 3322 
L 2509 2988 
L 1581 2988 
L 963 -206 
Q 853 -763 509 -1047 
Q 166 -1331 -394 -1331 
L -356 -1025 
Q -28 -1025 131 -850 
Q 297 -663 388 -206 
L 1006 2988 
L 456 2988 
L 522 3322 
L 1072 3322 
L 1153 3738 
Q 1263 4297 1606 4578 
Q 1950 4863 2509 4863 
Q 2719 4863 2920 4825 
Q 3122 4788 3316 4709 
L 3191 4078 
z
" transform="scale(0.015625)"/>
      <path id="DejaVuSerif-Italic-6f" d="M 1644 219 
Q 2106 219 2414 584 
Q 2722 950 2859 1663 
Q 2922 1988 2922 2241 
Q 2922 2541 2834 2738 
Q 2669 3103 2206 3103 
Q 1744 3103 1436 2739 
Q 1128 2375 991 1663 
Q 928 1338 928 1088 
Q 928 784 1019 584 
Q 1184 219 1644 219 
z
M 1584 -91 
Q 859 -91 513 388 
Q 272 722 272 1203 
Q 272 1419 319 1663 
Q 472 2456 1005 2934 
Q 1538 3413 2266 3413 
Q 2994 3413 3341 2934 
Q 3578 2603 3578 2122 
Q 3578 1906 3531 1663 
Q 3378 869 2845 389 
Q 2313 -91 1584 -91 
z
" transform="scale(0.015625)"/>
      <path id="DejaVuSerif-Italic-72" d="M 3375 3328 
L 3213 2497 
L 2881 2497 
Q 2891 2559 2891 2613 
Q 2891 2775 2816 2866 
Q 2719 2988 2484 2988 
Q 2059 2988 1775 2694 
Q 1491 2400 1384 1850 
L 1025 0 
L 450 0 
L 1031 2994 
L 481 2994 
L 544 3322 
L 1669 3322 
L 1556 2731 
Q 1791 3078 2089 3245 
Q 2388 3413 2769 3413 
Q 2909 3413 3059 3391 
Q 3209 3369 3375 3328 
z
" transform="scale(0.015625)"/>
      <path id="DejaVuSerif-Italic-74" d="M 856 2988 
L 350 2988 
L 416 3322 
L 922 3322 
L 1122 4353 
L 1700 4353 
L 1500 3322 
L 2581 3322 
L 2516 2988 
L 1434 2988 
L 1025 878 
Q 978 631 978 488 
Q 978 388 1000 338 
Q 1059 219 1278 219 
Q 1503 219 1633 351 
Q 1763 484 1825 781 
L 2259 781 
Q 2147 328 1884 118 
Q 1622 -91 1169 -91 
Q 672 -91 506 131 
Q 406 266 406 516 
Q 406 675 447 878 
L 856 2988 
z
" transform="scale(0.015625)"/>
      <path id="DejaVuSerif-Italic-68" d="M 309 0 
L 1191 4531 
L 641 4531 
L 703 4863 
L 1828 4863 
L 1416 2731 
Q 1641 3069 1928 3241 
Q 2216 3413 2553 3413 
Q 3103 3413 3300 3097 
Q 3422 2906 3422 2588 
Q 3422 2378 3369 2113 
L 3022 331 
L 3534 331 
L 3472 0 
L 2381 0 
L 2756 1931 
Q 2819 2253 2819 2469 
Q 2819 2659 2769 2763 
Q 2666 2988 2284 2988 
Q 1884 2988 1617 2697 
Q 1350 2406 1244 1850 
L 884 0 
L 309 0 
z
" transform="scale(0.015625)"/>
     </defs>
     <use xlink:href="#DejaVuSerif-Italic-64"/>
     <use xlink:href="#DejaVuSerif-Italic-65" transform="translate(64.013672 0)"/>
     <use xlink:href="#DejaVuSerif-Italic-63" transform="translate(123.193359 0)"/>
     <use xlink:href="#DejaVuSerif-Italic-69" transform="translate(179.199219 0)"/>
     <use xlink:href="#DejaVuSerif-Italic-73" transform="translate(211.181641 0)"/>
     <use xlink:href="#DejaVuSerif-Italic-69" transform="translate(262.5 0)"/>
     <use xlink:href="#DejaVuSerif-Italic-76" transform="translate(294.482422 0)"/>
     <use xlink:href="#DejaVuSerif-Italic-65" transform="translate(350.976562 0)"/>
     <use xlink:href="#DejaVuSerif-Italic-20" transform="translate(410.15625 0)"/>
     <use xlink:href="#DejaVuSerif-Italic-66" transform="translate(441.943359 0)"/>
     <use xlink:href="#DejaVuSerif-Italic-6f" transform="translate(478.955078 0)"/>
     <use xlink:href="#DejaVuSerif-Italic-72" transform="translate(539.160156 0)"/>
     <use xlink:href="#DejaVuSerif-Italic-20" transform="translate(586.962891 0)"/>
     <use xlink:href="#DejaVuSerif-Italic-74" transform="translate(618.75 0)"/>
     <use xlink:href="#DejaVuSerif-Italic-68" transform="translate(658.935547 0)"/>
     <use xlink:href="#DejaVuSerif-Italic-65" transform="translate(723.339844 0)"/>
    </g>
    <!-- closure predicate -->
    <g style="fill: #d9730a" transform="translate(478.657938 245.516636) scale(0.064 -0.064)">
     <defs>
      <path id="DejaVuSerif-Italic-6c" d="M 903 331 
L 1447 331 
L 1384 0 
L 266 0 
L 1147 4531 
L 594 4531 
L 656 4863 
L 1784 4863 
L 903 331 
z
" transform="scale(0.015625)"/>
      <path id="DejaVuSerif-Italic-75" d="M 3097 3322 
L 3672 3322 
L 3091 331 
L 3634 331 
L 3572 0 
L 2453 0 
L 2566 588 
Q 2341 256 2055 82 
Q 1769 -91 1434 -91 
Q 881 -91 681 225 
Q 559 413 559 734 
Q 559 944 613 1209 
L 956 2988 
L 438 2988 
L 503 3322 
L 1600 3322 
L 1225 1388 
Q 1163 1066 1163 853 
Q 1163 663 1213 556 
Q 1316 331 1697 331 
Q 2097 331 2364 625 
Q 2631 919 2738 1478 
L 3097 3322 
z
" transform="scale(0.015625)"/>
      <path id="DejaVuSerif-Italic-70" d="M 1466 1825 
L 1400 1497 
Q 1353 1250 1353 1053 
Q 1353 769 1453 581 
Q 1622 269 2059 269 
Q 2500 269 2795 622 
Q 3091 975 3225 1663 
Q 3284 1978 3284 2225 
Q 3284 2513 3200 2703 
Q 3041 3053 2600 3053 
Q 2163 3053 1872 2737 
Q 1581 2422 1466 1825 
z
M 1116 2988 
L 563 2988 
L 628 3322 
L 1756 3322 
L 1656 2803 
Q 1884 3116 2175 3264 
Q 2466 3413 2850 3413 
Q 3463 3413 3753 2928 
Q 3947 2609 3947 2163 
Q 3947 1928 3897 1663 
Q 3744 881 3262 395 
Q 2781 -91 2169 -91 
Q 1784 -91 1551 57 
Q 1319 206 1213 519 
L 850 -1331 
L 275 -1331 
L 1116 2988 
z
" transform="scale(0.015625)"/>
      <path id="DejaVuSerif-Italic-61" d="M 2325 519 
Q 1909 -91 1238 -91 
Q 688 -91 409 281 
Q 216 544 216 919 
Q 216 1078 250 1256 
Q 463 2359 1231 2928 
Q 1884 3413 2675 3413 
Q 3206 3413 3388 3322 
L 2806 331 
L 3300 331 
L 3238 0 
L 2225 0 
L 2325 519 
z
M 822 938 
Q 822 269 1469 269 
Q 1863 269 2130 583 
Q 2397 897 2516 1497 
L 2806 3003 
L 2806 3003 
Q 2806 3094 2556 3094 
Q 1956 3094 1491 2625 
Q 1028 2153 863 1297 
Q 822 1097 822 938 
z
" transform="scale(0.015625)"/>
     </defs>
     <use xlink:href="#DejaVuSerif-Italic-63"/>
     <use xlink:href="#DejaVuSerif-Italic-6c" transform="translate(56.005859 0)"/>
     <use xlink:href="#DejaVuSerif-Italic-6f" transform="translate(87.988281 0)"/>
     <use xlink:href="#DejaVuSerif-Italic-73" transform="translate(148.193359 0)"/>
     <use xlink:href="#DejaVuSerif-Italic-75" transform="translate(199.511719 0)"/>
     <use xlink:href="#DejaVuSerif-Italic-72" transform="translate(263.916016 0)"/>
     <use xlink:href="#DejaVuSerif-Italic-65" transform="translate(311.71875 0)"/>
     <use xlink:href="#DejaVuSerif-Italic-20" transform="translate(370.898438 0)"/>
     <use xlink:href="#DejaVuSerif-Italic-70" transform="translate(402.685547 0)"/>
     <use xlink:href="#DejaVuSerif-Italic-72" transform="translate(466.699219 0)"/>
     <use xlink:href="#DejaVuSerif-Italic-65" transform="translate(514.501953 0)"/>
     <use xlink:href="#DejaVuSerif-Italic-64" transform="translate(573.681641 0)"/>
     <use xlink:href="#DejaVuSerif-Italic-69" transform="translate(637.695312 0)"/>
     <use xlink:href="#DejaVuSerif-Italic-63" transform="translate(669.677734 0)"/>
     <use xlink:href="#DejaVuSerif-Italic-61" transform="translate(725.683594 0)"/>
     <use xlink:href="#DejaVuSerif-Italic-74" transform="translate(785.302734 0)"/>
     <use xlink:href="#DejaVuSerif-Italic-65" transform="translate(825.488281 0)"/>
    </g>
   </g>
   <g id="text_23">
    <!-- Open-access directed-energy census: the two decision-controlling -->
    <g transform="translate(188.72875 13.582688) scale(0.084 -0.084)">
     <defs>
      <path id="DejaVuSerif-Bold-4f" d="M 2784 288 
Q 3381 288 3672 791 
Q 3963 1294 3963 2328 
Q 3963 3366 3672 3869 
Q 3381 4372 2784 4372 
Q 2191 4372 1898 3864 
Q 1606 3356 1606 2328 
Q 1606 1303 1898 795 
Q 2191 288 2784 288 
z
M 2784 -91 
Q 1606 -91 937 553 
Q 269 1197 269 2328 
Q 269 3459 939 4104 
Q 1609 4750 2784 4750 
Q 3963 4750 4631 4106 
Q 5300 3463 5300 2328 
Q 5300 1197 4629 553 
Q 3959 -91 2784 -91 
z
" transform="scale(0.015625)"/>
      <path id="DejaVuSerif-Bold-3a" d="M 588 2541 
Q 588 2788 761 2963 
Q 934 3138 1178 3138 
Q 1422 3138 1597 2961 
Q 1772 2784 1772 2541 
Q 1772 2297 1598 2125 
Q 1425 1953 1178 1953 
Q 931 1953 759 2125 
Q 588 2297 588 2541 
z
M 588 506 
Q 588 750 761 925 
Q 934 1100 1178 1100 
Q 1422 1100 1597 925 
Q 1772 750 1772 506 
Q 1772 259 1597 84 
Q 1422 -91 1178 -91 
Q 934 -91 761 84 
Q 588 259 588 506 
z
" transform="scale(0.015625)"/>
      <path id="DejaVuSerif-Bold-68" d="M 219 0 
L 219 378 
L 691 378 
L 691 4488 
L 197 4488 
L 197 4863 
L 1797 4863 
L 1797 2853 
Q 1997 3150 2253 3281 
Q 2509 3413 2900 3413 
Q 3459 3413 3745 3083 
Q 4031 2753 4031 2113 
L 4031 378 
L 4506 378 
L 4506 0 
L 2522 0 
L 2522 378 
L 2925 378 
L 2925 2144 
Q 2925 2566 2817 2730 
Q 2709 2894 2444 2894 
Q 2109 2894 1953 2648 
Q 1797 2403 1797 1869 
L 1797 378 
L 2203 378 
L 2203 0 
L 219 0 
z
" transform="scale(0.015625)"/>
     </defs>
     <use xlink:href="#DejaVuSerif-Bold-4f"/>
     <use xlink:href="#DejaVuSerif-Bold-70" transform="translate(87.109375 0)"/>
     <use xlink:href="#DejaVuSerif-Bold-65" transform="translate(157.03125 0)"/>
     <use xlink:href="#DejaVuSerif-Bold-6e" transform="translate(220.654297 0)"/>
     <use xlink:href="#DejaVuSerif-Bold-2d" transform="translate(293.359375 0)"/>
     <use xlink:href="#DejaVuSerif-Bold-61" transform="translate(334.863281 0)"/>
     <use xlink:href="#DejaVuSerif-Bold-63" transform="translate(399.658203 0)"/>
     <use xlink:href="#DejaVuSerif-Bold-63" transform="translate(460.546875 0)"/>
     <use xlink:href="#DejaVuSerif-Bold-65" transform="translate(521.435547 0)"/>
     <use xlink:href="#DejaVuSerif-Bold-73" transform="translate(585.058594 0)"/>
     <use xlink:href="#DejaVuSerif-Bold-73" transform="translate(641.357422 0)"/>
     <use xlink:href="#DejaVuSerif-Bold-20" transform="translate(697.65625 0)"/>
     <use xlink:href="#DejaVuSerif-Bold-64" transform="translate(732.470703 0)"/>
     <use xlink:href="#DejaVuSerif-Bold-69" transform="translate(802.392578 0)"/>
     <use xlink:href="#DejaVuSerif-Bold-72" transform="translate(840.380859 0)"/>
     <use xlink:href="#DejaVuSerif-Bold-65" transform="translate(893.066406 0)"/>
     <use xlink:href="#DejaVuSerif-Bold-63" transform="translate(956.689453 0)"/>
     <use xlink:href="#DejaVuSerif-Bold-74" transform="translate(1017.578125 0)"/>
     <use xlink:href="#DejaVuSerif-Bold-65" transform="translate(1063.769531 0)"/>
     <use xlink:href="#DejaVuSerif-Bold-64" transform="translate(1127.392578 0)"/>
     <use xlink:href="#DejaVuSerif-Bold-2d" transform="translate(1197.314453 0)"/>
     <use xlink:href="#DejaVuSerif-Bold-65" transform="translate(1238.818359 0)"/>
     <use xlink:href="#DejaVuSerif-Bold-6e" transform="translate(1302.441406 0)"/>
     <use xlink:href="#DejaVuSerif-Bold-65" transform="translate(1375.146484 0)"/>
     <use xlink:href="#DejaVuSerif-Bold-72" transform="translate(1438.769531 0)"/>
     <use xlink:href="#DejaVuSerif-Bold-67" transform="translate(1491.455078 0)"/>
     <use xlink:href="#DejaVuSerif-Bold-79" transform="translate(1561.376953 0)"/>
     <use xlink:href="#DejaVuSerif-Bold-20" transform="translate(1619.482422 0)"/>
     <use xlink:href="#DejaVuSerif-Bold-63" transform="translate(1654.296875 0)"/>
     <use xlink:href="#DejaVuSerif-Bold-65" transform="translate(1715.185547 0)"/>
     <use xlink:href="#DejaVuSerif-Bold-6e" transform="translate(1778.808594 0)"/>
     <use xlink:href="#DejaVuSerif-Bold-73" transform="translate(1851.513672 0)"/>
     <use xlink:href="#DejaVuSerif-Bold-75" transform="translate(1907.8125 0)"/>
     <use xlink:href="#DejaVuSerif-Bold-73" transform="translate(1980.517578 0)"/>
     <use xlink:href="#DejaVuSerif-Bold-3a" transform="translate(2036.816406 0)"/>
     <use xlink:href="#DejaVuSerif-Bold-20" transform="translate(2073.730469 0)"/>
     <use xlink:href="#DejaVuSerif-Bold-74" transform="translate(2108.544922 0)"/>
     <use xlink:href="#DejaVuSerif-Bold-68" transform="translate(2154.736328 0)"/>
     <use xlink:href="#DejaVuSerif-Bold-65" transform="translate(2227.441406 0)"/>
     <use xlink:href="#DejaVuSerif-Bold-20" transform="translate(2291.064453 0)"/>
     <use xlink:href="#DejaVuSerif-Bold-74" transform="translate(2325.878906 0)"/>
     <use xlink:href="#DejaVuSerif-Bold-77" transform="translate(2372.070312 0)"/>
     <use xlink:href="#DejaVuSerif-Bold-6f" transform="translate(2458.154297 0)"/>
     <use xlink:href="#DejaVuSerif-Bold-20" transform="translate(2524.853516 0)"/>
     <use xlink:href="#DejaVuSerif-Bold-64" transform="translate(2559.667969 0)"/>
     <use xlink:href="#DejaVuSerif-Bold-65" transform="translate(2629.589844 0)"/>
     <use xlink:href="#DejaVuSerif-Bold-63" transform="translate(2693.212891 0)"/>
     <use xlink:href="#DejaVuSerif-Bold-69" transform="translate(2754.101562 0)"/>
     <use xlink:href="#DejaVuSerif-Bold-73" transform="translate(2792.089844 0)"/>
     <use xlink:href="#DejaVuSerif-Bold-69" transform="translate(2848.388672 0)"/>
     <use xlink:href="#DejaVuSerif-Bold-6f" transform="translate(2886.376953 0)"/>
     <use xlink:href="#DejaVuSerif-Bold-6e" transform="translate(2953.076172 0)"/>
     <use xlink:href="#DejaVuSerif-Bold-2d" transform="translate(3025.78125 0)"/>
     <use xlink:href="#DejaVuSerif-Bold-63" transform="translate(3067.285156 0)"/>
     <use xlink:href="#DejaVuSerif-Bold-6f" transform="translate(3128.173828 0)"/>
     <use xlink:href="#DejaVuSerif-Bold-6e" transform="translate(3194.873047 0)"/>
     <use xlink:href="#DejaVuSerif-Bold-74" transform="translate(3267.578125 0)"/>
     <use xlink:href="#DejaVuSerif-Bold-72" transform="translate(3313.769531 0)"/>
     <use xlink:href="#DejaVuSerif-Bold-6f" transform="translate(3366.455078 0)"/>
     <use xlink:href="#DejaVuSerif-Bold-6c" transform="translate(3433.154297 0)"/>
     <use xlink:href="#DejaVuSerif-Bold-6c" transform="translate(3471.142578 0)"/>
     <use xlink:href="#DejaVuSerif-Bold-69" transform="translate(3509.130859 0)"/>
     <use xlink:href="#DejaVuSerif-Bold-6e" transform="translate(3547.119141 0)"/>
     <use xlink:href="#DejaVuSerif-Bold-67" transform="translate(3619.824219 0)"/>
    </g>
    <!-- coordinates are exactly the ones never reported -->
    <g transform="translate(231.235375 23.108288) scale(0.084 -0.084)">
     <defs>
      <path id="DejaVuSerif-Bold-78" d="M 2247 2119 
L 2834 2944 
L 2425 2944 
L 2425 3322 
L 3719 3322 
L 3719 2944 
L 3278 2944 
L 2431 1759 
L 3419 378 
L 3859 378 
L 3859 0 
L 1747 0 
L 1747 378 
L 2175 378 
L 1550 1253 
L 922 378 
L 1369 378 
L 1369 0 
L 0 0 
L 0 378 
L 475 378 
L 1356 1619 
L 403 2944 
L 31 2944 
L 31 3322 
L 2059 3322 
L 2059 2944 
L 1656 2944 
L 2247 2119 
z
" transform="scale(0.015625)"/>
     </defs>
     <use xlink:href="#DejaVuSerif-Bold-63"/>
     <use xlink:href="#DejaVuSerif-Bold-6f" transform="translate(60.888672 0)"/>
     <use xlink:href="#DejaVuSerif-Bold-6f" transform="translate(127.587891 0)"/>
     <use xlink:href="#DejaVuSerif-Bold-72" transform="translate(194.287109 0)"/>
     <use xlink:href="#DejaVuSerif-Bold-64" transform="translate(246.972656 0)"/>
     <use xlink:href="#DejaVuSerif-Bold-69" transform="translate(316.894531 0)"/>
     <use xlink:href="#DejaVuSerif-Bold-6e" transform="translate(354.882812 0)"/>
     <use xlink:href="#DejaVuSerif-Bold-61" transform="translate(427.587891 0)"/>
     <use xlink:href="#DejaVuSerif-Bold-74" transform="translate(492.382812 0)"/>
     <use xlink:href="#DejaVuSerif-Bold-65" transform="translate(538.574219 0)"/>
     <use xlink:href="#DejaVuSerif-Bold-73" transform="translate(602.197266 0)"/>
     <use xlink:href="#DejaVuSerif-Bold-20" transform="translate(658.496094 0)"/>
     <use xlink:href="#DejaVuSerif-Bold-61" transform="translate(693.310547 0)"/>
     <use xlink:href="#DejaVuSerif-Bold-72" transform="translate(758.105469 0)"/>
     <use xlink:href="#DejaVuSerif-Bold-65" transform="translate(810.791016 0)"/>
     <use xlink:href="#DejaVuSerif-Bold-20" transform="translate(874.414062 0)"/>
     <use xlink:href="#DejaVuSerif-Bold-65" transform="translate(909.228516 0)"/>
     <use xlink:href="#DejaVuSerif-Bold-78" transform="translate(972.851562 0)"/>
     <use xlink:href="#DejaVuSerif-Bold-61" transform="translate(1032.470703 0)"/>
     <use xlink:href="#DejaVuSerif-Bold-63" transform="translate(1097.265625 0)"/>
     <use xlink:href="#DejaVuSerif-Bold-74" transform="translate(1158.154297 0)"/>
     <use xlink:href="#DejaVuSerif-Bold-6c" transform="translate(1204.345703 0)"/>
     <use xlink:href="#DejaVuSerif-Bold-79" transform="translate(1242.333984 0)"/>
     <use xlink:href="#DejaVuSerif-Bold-20" transform="translate(1300.439453 0)"/>
     <use xlink:href="#DejaVuSerif-Bold-74" transform="translate(1335.253906 0)"/>
     <use xlink:href="#DejaVuSerif-Bold-68" transform="translate(1381.445312 0)"/>
     <use xlink:href="#DejaVuSerif-Bold-65" transform="translate(1454.150391 0)"/>
     <use xlink:href="#DejaVuSerif-Bold-20" transform="translate(1517.773438 0)"/>
     <use xlink:href="#DejaVuSerif-Bold-6f" transform="translate(1552.587891 0)"/>
     <use xlink:href="#DejaVuSerif-Bold-6e" transform="translate(1619.287109 0)"/>
     <use xlink:href="#DejaVuSerif-Bold-65" transform="translate(1691.992188 0)"/>
     <use xlink:href="#DejaVuSerif-Bold-73" transform="translate(1755.615234 0)"/>
     <use xlink:href="#DejaVuSerif-Bold-20" transform="translate(1811.914062 0)"/>
     <use xlink:href="#DejaVuSerif-Bold-6e" transform="translate(1846.728516 0)"/>
     <use xlink:href="#DejaVuSerif-Bold-65" transform="translate(1919.433594 0)"/>
     <use xlink:href="#DejaVuSerif-Bold-76" transform="translate(1983.056641 0)"/>
     <use xlink:href="#DejaVuSerif-Bold-65" transform="translate(2041.162109 0)"/>
     <use xlink:href="#DejaVuSerif-Bold-72" transform="translate(2104.785156 0)"/>
     <use xlink:href="#DejaVuSerif-Bold-20" transform="translate(2157.470703 0)"/>
     <use xlink:href="#DejaVuSerif-Bold-72" transform="translate(2192.285156 0)"/>
     <use xlink:href="#DejaVuSerif-Bold-65" transform="translate(2244.970703 0)"/>
     <use xlink:href="#DejaVuSerif-Bold-70" transform="translate(2308.59375 0)"/>
     <use xlink:href="#DejaVuSerif-Bold-6f" transform="translate(2378.515625 0)"/>
     <use xlink:href="#DejaVuSerif-Bold-72" transform="translate(2445.214844 0)"/>
     <use xlink:href="#DejaVuSerif-Bold-74" transform="translate(2497.900391 0)"/>
     <use xlink:href="#DejaVuSerif-Bold-65" transform="translate(2544.091797 0)"/>
     <use xlink:href="#DejaVuSerif-Bold-64" transform="translate(2607.714844 0)"/>
    </g>
   </g>
   <g id="legend_1">
    <g id="patch_13">
     <path d="M 355.565094 273.054774 
L 367.965094 273.054774 
L 367.965094 268.714774 
L 355.565094 268.714774 
z
" style="fill: #2c7fb8"/>
    </g>
    <g id="text_24">
     <!-- reported -->
     <g transform="translate(372.925094 273.054774) scale(0.062 -0.062)">
      <use xlink:href="#DejaVuSerif-72"/>
      <use xlink:href="#DejaVuSerif-65" transform="translate(47.802734 0)"/>
      <use xlink:href="#DejaVuSerif-70" transform="translate(106.982422 0)"/>
      <use xlink:href="#DejaVuSerif-6f" transform="translate(170.996094 0)"/>
      <use xlink:href="#DejaVuSerif-72" transform="translate(231.201172 0)"/>
      <use xlink:href="#DejaVuSerif-74" transform="translate(279.003906 0)"/>
      <use xlink:href="#DejaVuSerif-65" transform="translate(319.189453 0)"/>
      <use xlink:href="#DejaVuSerif-64" transform="translate(378.369141 0)"/>
     </g>
    </g>
    <g id="patch_14">
     <path d="M 355.565094 282.155211 
L 367.965094 282.155211 
L 367.965094 277.815211 
L 355.565094 277.815211 
z
" style="fill: #9ecae1"/>
    </g>
    <g id="text_25">
     <!-- partial (geometry/batch, not a per-sample number) -->
     <g transform="translate(372.925094 282.155211) scale(0.062 -0.062)">
      <defs>
       <path id="DejaVuSerif-2c" d="M 231 -622 
Q 525 -406 662 -114 
Q 800 178 800 594 
L 800 709 
L 1416 709 
Q 1391 175 1164 -208 
Q 938 -591 481 -872 
L 231 -622 
z
" transform="scale(0.015625)"/>
      </defs>
      <use xlink:href="#DejaVuSerif-70"/>
      <use xlink:href="#DejaVuSerif-61" transform="translate(64.013672 0)"/>
      <use xlink:href="#DejaVuSerif-72" transform="translate(123.632812 0)"/>
      <use xlink:href="#DejaVuSerif-74" transform="translate(171.435547 0)"/>
      <use xlink:href="#DejaVuSerif-69" transform="translate(211.621094 0)"/>
      <use xlink:href="#DejaVuSerif-61" transform="translate(243.603516 0)"/>
      <use xlink:href="#DejaVuSerif-6c" transform="translate(303.222656 0)"/>
      <use xlink:href="#DejaVuSerif-20" transform="translate(335.205078 0)"/>
      <use xlink:href="#DejaVuSerif-28" transform="translate(366.992188 0)"/>
      <use xlink:href="#DejaVuSerif-67" transform="translate(406.005859 0)"/>
      <use xlink:href="#DejaVuSerif-65" transform="translate(470.019531 0)"/>
      <use xlink:href="#DejaVuSerif-6f" transform="translate(529.199219 0)"/>
      <use xlink:href="#DejaVuSerif-6d" transform="translate(589.404297 0)"/>
      <use xlink:href="#DejaVuSerif-65" transform="translate(684.228516 0)"/>
      <use xlink:href="#DejaVuSerif-74" transform="translate(743.408203 0)"/>
      <use xlink:href="#DejaVuSerif-72" transform="translate(783.59375 0)"/>
      <use xlink:href="#DejaVuSerif-79" transform="translate(831.396484 0)"/>
      <use xlink:href="#DejaVuSerif-2f" transform="translate(887.890625 0)"/>
      <use xlink:href="#DejaVuSerif-62" transform="translate(921.582031 0)"/>
      <use xlink:href="#DejaVuSerif-61" transform="translate(985.595703 0)"/>
      <use xlink:href="#DejaVuSerif-74" transform="translate(1045.214844 0)"/>
      <use xlink:href="#DejaVuSerif-63" transform="translate(1085.400391 0)"/>
      <use xlink:href="#DejaVuSerif-68" transform="translate(1141.40625 0)"/>
      <use xlink:href="#DejaVuSerif-2c" transform="translate(1205.810547 0)"/>
      <use xlink:href="#DejaVuSerif-20" transform="translate(1237.597656 0)"/>
      <use xlink:href="#DejaVuSerif-6e" transform="translate(1269.384766 0)"/>
      <use xlink:href="#DejaVuSerif-6f" transform="translate(1333.789062 0)"/>
      <use xlink:href="#DejaVuSerif-74" transform="translate(1393.994141 0)"/>
      <use xlink:href="#DejaVuSerif-20" transform="translate(1434.179688 0)"/>
      <use xlink:href="#DejaVuSerif-61" transform="translate(1465.966797 0)"/>
      <use xlink:href="#DejaVuSerif-20" transform="translate(1525.585938 0)"/>
      <use xlink:href="#DejaVuSerif-70" transform="translate(1557.373047 0)"/>
      <use xlink:href="#DejaVuSerif-65" transform="translate(1621.386719 0)"/>
      <use xlink:href="#DejaVuSerif-72" transform="translate(1680.566406 0)"/>
      <use xlink:href="#DejaVuSerif-2d" transform="translate(1728.369141 0)"/>
      <use xlink:href="#DejaVuSerif-73" transform="translate(1762.158203 0)"/>
      <use xlink:href="#DejaVuSerif-61" transform="translate(1813.476562 0)"/>
      <use xlink:href="#DejaVuSerif-6d" transform="translate(1873.095703 0)"/>
      <use xlink:href="#DejaVuSerif-70" transform="translate(1967.919922 0)"/>
      <use xlink:href="#DejaVuSerif-6c" transform="translate(2031.933594 0)"/>
      <use xlink:href="#DejaVuSerif-65" transform="translate(2063.916016 0)"/>
      <use xlink:href="#DejaVuSerif-20" transform="translate(2123.095703 0)"/>
      <use xlink:href="#DejaVuSerif-6e" transform="translate(2154.882812 0)"/>
      <use xlink:href="#DejaVuSerif-75" transform="translate(2219.287109 0)"/>
      <use xlink:href="#DejaVuSerif-6d" transform="translate(2283.691406 0)"/>
      <use xlink:href="#DejaVuSerif-62" transform="translate(2378.515625 0)"/>
      <use xlink:href="#DejaVuSerif-65" transform="translate(2442.529297 0)"/>
      <use xlink:href="#DejaVuSerif-72" transform="translate(2501.708984 0)"/>
      <use xlink:href="#DejaVuSerif-29" transform="translate(2549.511719 0)"/>
     </g>
    </g>
    <g id="patch_15">
     <path d="M 355.565094 291.343805 
L 367.965094 291.343805 
L 367.965094 287.003805 
L 355.565094 287.003805 
z
" style="fill: #d9730a"/>
    </g>
    <g id="text_26">
     <!-- decision-controlling coordinate (reported 0/7) -->
     <g transform="translate(372.925094 291.343805) scale(0.062 -0.062)">
      <use xlink:href="#DejaVuSerif-64"/>
      <use xlink:href="#DejaVuSerif-65" transform="translate(64.013672 0)"/>
      <use xlink:href="#DejaVuSerif-63" transform="translate(123.193359 0)"/>
      <use xlink:href="#DejaVuSerif-69" transform="translate(179.199219 0)"/>
      <use xlink:href="#DejaVuSerif-73" transform="translate(211.181641 0)"/>
      <use xlink:href="#DejaVuSerif-69" transform="translate(262.5 0)"/>
      <use xlink:href="#DejaVuSerif-6f" transform="translate(294.482422 0)"/>
      <use xlink:href="#DejaVuSerif-6e" transform="translate(354.6875 0)"/>
      <use xlink:href="#DejaVuSerif-2d" transform="translate(419.091797 0)"/>
      <use xlink:href="#DejaVuSerif-63" transform="translate(452.880859 0)"/>
      <use xlink:href="#DejaVuSerif-6f" transform="translate(508.886719 0)"/>
      <use xlink:href="#DejaVuSerif-6e" transform="translate(569.091797 0)"/>
      <use xlink:href="#DejaVuSerif-74" transform="translate(633.496094 0)"/>
      <use xlink:href="#DejaVuSerif-72" transform="translate(673.681641 0)"/>
      <use xlink:href="#DejaVuSerif-6f" transform="translate(721.484375 0)"/>
      <use xlink:href="#DejaVuSerif-6c" transform="translate(781.689453 0)"/>
      <use xlink:href="#DejaVuSerif-6c" transform="translate(813.671875 0)"/>
      <use xlink:href="#DejaVuSerif-69" transform="translate(845.654297 0)"/>
      <use xlink:href="#DejaVuSerif-6e" transform="translate(877.636719 0)"/>
      <use xlink:href="#DejaVuSerif-67" transform="translate(942.041016 0)"/>
      <use xlink:href="#DejaVuSerif-20" transform="translate(1006.054688 0)"/>
      <use xlink:href="#DejaVuSerif-63" transform="translate(1037.841797 0)"/>
      <use xlink:href="#DejaVuSerif-6f" transform="translate(1093.847656 0)"/>
      <use xlink:href="#DejaVuSerif-6f" transform="translate(1154.052734 0)"/>
      <use xlink:href="#DejaVuSerif-72" transform="translate(1214.257812 0)"/>
      <use xlink:href="#DejaVuSerif-64" transform="translate(1262.060547 0)"/>
      <use xlink:href="#DejaVuSerif-69" transform="translate(1326.074219 0)"/>
      <use xlink:href="#DejaVuSerif-6e" transform="translate(1358.056641 0)"/>
      <use xlink:href="#DejaVuSerif-61" transform="translate(1422.460938 0)"/>
      <use xlink:href="#DejaVuSerif-74" transform="translate(1482.080078 0)"/>
      <use xlink:href="#DejaVuSerif-65" transform="translate(1522.265625 0)"/>
      <use xlink:href="#DejaVuSerif-20" transform="translate(1581.445312 0)"/>
      <use xlink:href="#DejaVuSerif-28" transform="translate(1613.232422 0)"/>
      <use xlink:href="#DejaVuSerif-72" transform="translate(1652.246094 0)"/>
      <use xlink:href="#DejaVuSerif-65" transform="translate(1700.048828 0)"/>
      <use xlink:href="#DejaVuSerif-70" transform="translate(1759.228516 0)"/>
      <use xlink:href="#DejaVuSerif-6f" transform="translate(1823.242188 0)"/>
      <use xlink:href="#DejaVuSerif-72" transform="translate(1883.447266 0)"/>
      <use xlink:href="#DejaVuSerif-74" transform="translate(1931.25 0)"/>
      <use xlink:href="#DejaVuSerif-65" transform="translate(1971.435547 0)"/>
      <use xlink:href="#DejaVuSerif-64" transform="translate(2030.615234 0)"/>
      <use xlink:href="#DejaVuSerif-20" transform="translate(2094.628906 0)"/>
      <use xlink:href="#DejaVuSerif-30" transform="translate(2126.416016 0)"/>
      <use xlink:href="#DejaVuSerif-2f" transform="translate(2190.039062 0)"/>
      <use xlink:href="#DejaVuSerif-37" transform="translate(2223.730469 0)"/>
      <use xlink:href="#DejaVuSerif-29" transform="translate(2287.353516 0)"/>
     </g>
    </g>
   </g>
  </g>
 </g>
 <defs>
  <clipPath id="pde678315e0">
   <rect x="148.396938" y="31.108288" width="390.6" height="261.954"/>
  </clipPath>
 </defs>
</svg>
